<svg xmlns="http://www.w3.org/2000/svg" width="1024" height="768" viewBox="0 0 1024 768" version="1.1"><path d="M 510.946 139.101 C 509.513 141.778, 507.379 156.532, 506.512 169.750 C 505.947 178.362, 506.072 180, 507.295 180 C 508.922 180, 509.992 175.921, 510.015 169.625 C 510.024 167.356, 510.361 164.992, 510.765 164.370 C 511.169 163.749, 514.425 162.929, 518 162.548 C 526.106 161.685, 528.185 161.109, 527.456 159.928 C 527.140 159.418, 523.871 158.993, 520.191 158.985 C 510.752 158.963, 510.639 158.833, 511.931 149.543 C 512.523 145.282, 513.273 141.367, 513.597 140.842 C 513.921 140.318, 518.532 139.970, 523.843 140.069 C 529.154 140.167, 533.639 139.855, 533.809 139.374 C 534.313 137.949, 530.054 137.206, 520.785 137.100 C 512.900 137.009, 511.963 137.200, 510.946 139.101 M 553.295 162.014 C 550.580 163.108, 547 169.874, 547 173.913 C 547 180.703, 550.644 184, 558.147 184 C 561.451 184, 562.851 183.349, 565.725 180.475 C 569.045 177.155, 569.221 176.650, 568.753 171.785 C 567.933 163.252, 561.041 158.896, 553.295 162.014 M 445 163.706 C 439.520 165.709, 435.757 174.586, 438.046 180.111 C 439.675 184.044, 444.685 186.337, 449.624 185.411 C 453.534 184.677, 459 180.596, 459 178.411 C 459 176.458, 458.174 176.632, 454.594 179.341 C 450.280 182.606, 446.840 183.276, 444.132 181.380 C 442.902 180.518, 442.032 179.454, 442.198 179.016 C 442.364 178.577, 444.863 176.358, 447.750 174.086 C 453.307 169.711, 454.160 167.360, 451.171 164.655 C 449.311 162.972, 447.691 162.723, 445 163.706 M 554.500 166.247 C 550.909 169.336, 549.706 177.580, 552.544 179.656 C 558.400 183.938, 567.739 176.704, 565.149 169.893 C 563.143 164.616, 558.317 162.963, 554.500 166.247 M 443.571 168.571 C 441.905 170.238, 441.440 173, 442.826 173 C 443.797 173, 448 168.683, 448 167.686 C 448 166.417, 445.157 166.986, 443.571 168.571 M 593.656 172.717 C 592.183 175.587, 588 189.709, 588 191.814 C 588 194.276, 589.840 192.815, 593.746 187.250 C 599.005 179.758, 601.267 177.803, 604.887 177.621 C 608.998 177.414, 609.791 176.251, 606.639 175.053 C 604.909 174.395, 603.117 174.385, 601.435 175.025 C 597.059 176.688, 595.709 176.296, 596.395 173.561 C 597.279 170.041, 595.338 169.442, 593.656 172.717 M 407.894 175.114 C 406.461 175.640, 404.720 177.292, 404.024 178.785 L 402.758 181.500 401.714 179.222 C 400.170 175.856, 398.490 177.123, 398.570 181.592 C 398.672 187.318, 401.813 208.916, 403.280 213.982 C 403.975 216.383, 405.166 218.555, 405.926 218.809 C 407.035 219.178, 407.176 218.303, 406.637 214.385 C 404.474 198.674, 404.458 199, 407.412 199 C 419.074 199, 425.782 180.558, 415.966 175.483 C 412.728 173.808, 411.594 173.756, 407.894 175.114 M 407.548 180.567 C 405.102 184.300, 403.280 193.680, 404.721 195.121 C 406.225 196.625, 410.274 195.528, 413.514 192.741 C 416.999 189.744, 418.063 182.832, 415.480 179.978 C 412.991 177.227, 409.570 177.482, 407.548 180.567 M 661 190.200 C 652.552 195.507, 643.164 201.072, 634.767 205.749 C 631.064 207.812, 628.026 209.789, 628.017 210.143 C 628.008 210.497, 628.749 211.074, 629.665 211.425 C 630.690 211.818, 633.284 210.796, 636.415 208.765 C 646.091 202.489, 646.077 202.492, 651.330 205.665 C 653.899 207.216, 655.997 208.939, 655.992 209.493 C 655.988 210.047, 655.092 213.425, 654 217 C 651.734 224.422, 651.526 226.411, 653.120 225.426 C 654.214 224.750, 662 208.726, 663.442 204.183 C 663.841 202.924, 665.705 199.175, 667.584 195.851 C 673.655 185.110, 671.731 183.459, 661 190.200 M 657.159 196.275 L 649.935 200.500 653.191 203.259 C 654.981 204.776, 656.908 205.875, 657.473 205.700 C 658.635 205.339, 665.406 193.072, 664.785 192.452 C 664.564 192.231, 661.132 193.951, 657.159 196.275 M 367.855 198.695 C 362.572 201.973, 361.657 211.877, 366.190 216.702 C 370.713 221.517, 381.392 218.103, 383.369 211.209 C 386.193 201.361, 376.351 193.423, 367.855 198.695 M 507 197.746 C 484.126 198.995, 461.977 209.497, 456.778 221.558 C 445.058 248.746, 433.265 287.806, 432.269 302.733 C 431.272 317.693, 435.168 333.967, 444.430 353.531 C 449.917 365.120, 461.253 385.504, 463.552 387.915 C 465.177 389.619, 464.800 390.207, 451.008 407.500 C 445.744 414.100, 434.610 428.500, 426.265 439.500 C 417.921 450.500, 409.827 460.904, 408.279 462.620 L 405.464 465.739 400.982 461.735 C 398.517 459.533, 394.103 456.130, 391.174 454.174 C 387.476 451.703, 384.458 448.460, 381.295 443.558 C 378.790 439.676, 372.739 432.412, 367.848 427.415 L 358.955 418.329 356.942 407.915 C 354.074 393.075, 353.291 390.517, 348.702 381 C 342.305 367.735, 330.256 357.148, 322.799 358.243 C 320.344 358.603, 319.634 358.182, 318.323 355.586 C 314.068 347.164, 308.962 343.316, 299.778 341.611 C 295.523 340.821, 290.721 342.783, 288.989 346.020 C 287.854 348.141, 289.680 367.579, 292.510 383.500 C 293.292 387.900, 294.599 395.325, 295.416 400 C 296.232 404.675, 298.639 416.418, 300.765 426.096 C 304.970 445.240, 306.321 448.335, 315.228 459.228 C 318.127 462.774, 323.200 469.407, 326.500 473.967 C 329.800 478.528, 336.695 487.904, 341.821 494.803 C 346.948 501.703, 352.187 509.407, 353.463 511.924 C 356.436 517.787, 356.769 518.050, 374 528.179 C 392.876 539.275, 399.102 542.608, 413 549.054 C 422.790 553.595, 430.009 557.752, 443.833 566.810 C 448.776 570.049, 444.330 564.378, 436.940 558.017 C 427.858 550.201, 424.557 548.161, 406.500 539.205 C 391.938 531.983, 368.421 518.466, 364.630 515.141 C 363.601 514.238, 360.275 509.735, 357.239 505.133 C 350.251 494.540, 339.282 479.735, 327.507 465 C 317.337 452.275, 312.002 443.866, 309.656 436.868 C 308.802 434.320, 307.159 425.545, 306.004 417.368 C 302.896 395.366, 297.123 362.058, 295.457 356.523 C 293.555 350.204, 293.619 349, 295.854 349 C 298.594 349, 302.485 353.054, 305.578 359.131 C 307.082 362.084, 308.493 363.971, 308.714 363.325 C 309.312 361.578, 305.225 353.964, 301.696 350.250 C 298.147 346.515, 298.584 346.233, 303.790 348.903 C 307.678 350.897, 310.471 353.632, 313.350 358.268 C 314.871 360.716, 314.893 361.104, 313.535 361.625 C 311.371 362.455, 311.590 367.590, 314.112 375.161 C 315.877 380.462, 316.343 385.102, 316.954 403.500 C 317.356 415.600, 318.206 427.072, 318.842 428.993 C 319.479 430.915, 320 434.096, 320 436.062 C 320 440.522, 322.746 450, 324.039 450 C 325.305 450, 325.253 449.404, 323.466 443.515 L 321.954 438.530 327.020 443.515 C 330.306 446.749, 333.740 451.748, 336.793 457.745 C 341.644 467.274, 343.679 469.430, 342.463 463.750 C 342.080 461.963, 341.994 460.725, 342.272 461 C 343.448 462.162, 349.905 470.957, 353.835 476.750 C 356.167 480.187, 358.309 483, 358.596 483 C 359.732 483, 352.624 470.991, 347.323 463.956 C 341.764 456.577, 335.247 444, 336.983 444 C 337.477 444, 338.160 444.450, 338.500 445 C 338.840 445.550, 339.563 446, 340.107 446 C 340.650 446, 338.815 443.720, 336.028 440.933 C 328.961 433.866, 325.124 425.838, 323.955 415.675 C 323.048 407.781, 322.795 387.432, 323.655 391.500 C 323.888 392.600, 324.294 394.512, 324.558 395.750 C 324.822 396.988, 325.437 398, 325.924 398 C 327.468 398, 325.906 389.858, 322.250 378.846 C 318.116 366.397, 318.331 364.484, 323.761 365.440 C 336.406 367.665, 344.314 381.102, 351.378 412.368 L 354.963 428.236 360.731 434.611 C 369.366 444.152, 374.257 451.678, 378.262 461.583 C 380.402 466.874, 385.755 476.396, 391.428 485 C 401.683 500.554, 404.301 503.130, 395.853 489.354 C 393.022 484.738, 390.973 480.694, 391.300 480.367 C 391.626 480.040, 393.859 482.862, 396.261 486.637 C 398.664 490.411, 401.649 495.075, 402.895 497 L 405.160 500.500 404.521 497.500 C 404.170 495.850, 403.009 492.670, 401.941 490.434 C 400.874 488.198, 400 486.021, 400 485.596 C 400 484.544, 421.939 496.197, 430.032 501.546 C 438.112 506.887, 442.087 514.207, 444.007 527.278 L 444.856 533.056 458.458 546.178 C 465.940 553.395, 473.365 561.233, 474.959 563.594 C 479.072 569.688, 482.008 576.734, 481.953 580.377 C 481.908 583.382, 481.840 583.331, 480.135 579 C 477.440 572.152, 474.053 567.402, 464.362 556.875 C 452.047 543.499, 447.143 539.624, 434.432 533.227 C 428.767 530.376, 414.029 525.638, 413.249 526.417 C 413.045 526.621, 415.043 527.562, 417.689 528.507 C 425.502 531.298, 440.685 538.688, 445.774 542.177 C 448.373 543.959, 452.674 547.444, 455.331 549.921 C 460.542 554.779, 472.353 569.315, 475.709 575 C 477.952 578.800, 481 588.537, 481 591.904 C 481 595.116, 482.841 594.394, 483.767 590.818 C 484.221 589.068, 485.137 587.454, 485.804 587.232 C 486.720 586.927, 486.763 587.492, 485.980 589.553 C 484.464 593.540, 485.331 593.526, 488.861 589.506 C 493.978 583.678, 496.320 578.159, 496.290 572 C 496.258 565.371, 489.950 547.974, 483.953 537.972 C 479.919 531.244, 467.707 518.009, 462.755 514.997 L 459.953 513.293 463.658 507.906 C 465.696 504.943, 471.027 497.790, 475.504 492.010 C 479.982 486.229, 485.599 478.575, 487.988 475 C 494.425 465.365, 508.208 447, 509.003 447 C 510.752 447, 559 511.383, 559 513.716 C 559 514.246, 557.987 515.141, 556.749 515.705 C 552.824 517.493, 542.243 526.901, 538.658 531.790 C 533.789 538.429, 526.551 553.240, 523.009 563.813 C 519.905 573.077, 518.958 582.514, 521.207 581.764 C 521.905 581.532, 523.873 584.449, 525.874 588.681 C 527.776 592.706, 529.700 596, 530.148 596 C 530.595 596, 530.802 594.087, 530.606 591.750 C 530.410 589.413, 530.453 588.563, 530.702 589.862 C 531.148 592.188, 531.176 592.194, 532.561 590.216 C 533.335 589.111, 535.142 584.955, 536.576 580.979 C 538.010 577.004, 541.410 570.544, 544.133 566.625 C 547.639 561.578, 548.123 560.558, 545.790 563.129 C 543.979 565.124, 540.139 570.749, 537.256 575.629 C 534.372 580.508, 532.010 584.125, 532.007 583.667 C 532.003 583.208, 532.923 579.218, 534.051 574.800 C 537.040 563.092, 535.862 561.957, 532.182 573 C 529.139 582.130, 529.039 582.286, 529.610 577 C 530.362 570.043, 533.448 560.554, 536.464 555.928 C 538.975 552.077, 543.753 546.534, 554 535.585 C 557.649 531.687, 559.184 529.560, 557.500 530.736 C 552.124 534.493, 533.914 555.529, 532.090 560.090 C 531.454 561.682, 531.105 561.935, 531.063 560.835 C 530.929 557.307, 537.402 542.664, 541.505 537.215 C 543.871 534.072, 549.214 528.233, 553.377 524.240 L 560.948 516.980 563.978 522.240 C 565.644 525.133, 567.546 528.962, 568.205 530.750 C 570.181 536.117, 570.638 535.666, 578.084 521 C 581.016 515.225, 584.334 509.216, 585.457 507.647 C 587.489 504.810, 603.972 493.421, 609.281 491.185 C 611.966 490.055, 612.023 490.092, 610.903 492.257 C 610.265 493.491, 609.238 495.210, 608.622 496.079 C 608.005 496.947, 609.975 495.096, 613 491.967 C 618.125 486.664, 625 481.182, 625 482.397 C 625 482.691, 623.390 485.860, 621.422 489.441 C 619.454 493.021, 618.002 496.749, 618.194 497.725 C 618.433 498.935, 619.636 497.589, 621.970 493.500 C 623.853 490.200, 628.876 483.852, 633.131 479.393 C 639.160 473.075, 641.889 469.185, 645.499 461.766 C 649.828 452.868, 654.939 446, 657.231 446 C 657.778 446, 663.094 441.090, 669.044 435.090 C 679.510 424.534, 679.929 423.942, 681.938 416.840 C 689.990 388.367, 691.019 385.825, 697.828 377.585 C 703.303 370.959, 709.532 367.080, 715.907 366.325 L 721.081 365.712 717.555 373.448 C 713.761 381.773, 709.958 393.539, 710.068 396.608 C 710.105 397.649, 711.675 395.350, 713.557 391.500 C 715.438 387.650, 716.777 385.400, 716.533 386.500 C 715.593 390.727, 713.110 406.785, 712.467 412.799 C 711.884 418.240, 711.008 420.281, 706.027 427.799 C 702.856 432.584, 698.515 438.073, 696.381 439.995 C 692.876 443.152, 692.932 443.031, 696.958 438.745 C 699.410 436.135, 700.930 434, 700.336 434 C 699.271 434, 693.498 440.175, 689.411 445.684 C 687.123 448.769, 676 467.970, 676 468.836 C 676 470.036, 682.400 463.134, 686.318 457.709 C 688.988 454.012, 692.567 450.648, 696.217 448.407 C 699.361 446.476, 703.589 443.007, 705.613 440.698 C 707.636 438.389, 709.036 437.235, 708.722 438.133 C 708.409 439.030, 707.232 442.748, 706.105 446.394 C 703.374 455.238, 703.579 454.910, 690.916 470.699 C 684.829 478.290, 677.021 488.775, 673.565 494 C 662.287 511.049, 660.531 512.796, 647.027 520.408 C 634.394 527.529, 623.940 532.288, 623.023 531.336 C 622.735 531.038, 624.972 528.703, 627.994 526.147 C 634.661 520.507, 644.281 511.183, 641.500 513.055 C 640.400 513.796, 639.050 514.874, 638.500 515.451 C 637.950 516.028, 635.250 518.250, 632.500 520.389 C 629.750 522.527, 626.054 525.821, 624.286 527.708 C 621.007 531.210, 605.514 540.998, 603.250 540.999 C 602.563 541, 602 541.401, 602 541.892 C 602 542.382, 600.933 543.051, 599.629 543.378 C 597.183 543.992, 581.549 553.298, 576.842 556.942 C 572.931 559.970, 572.065 559.447, 575.617 556.203 C 580.523 551.722, 588.291 546.316, 591 545.498 C 594.639 544.399, 601.269 540.936, 600.742 540.409 C 600.494 540.161, 596.326 541.781, 591.480 544.009 C 583.946 547.473, 581.425 549.324, 574.085 556.780 C 569.363 561.576, 564.650 567.075, 563.610 569 L 561.720 572.500 566.110 568.312 C 570.021 564.580, 585.185 554, 586.623 554 C 586.931 554, 584.743 555.988, 581.761 558.417 C 576.933 562.350, 572.057 568, 573.491 568 C 573.787 568, 576.544 565.951, 579.619 563.447 C 587.889 556.710, 590.748 555.090, 614.133 543.884 C 636.647 533.094, 660.980 520.009, 664.726 516.676 C 665.951 515.587, 668.733 511.727, 670.909 508.098 C 673.085 504.469, 678.983 496.325, 684.016 490 C 689.049 483.675, 696.996 472.936, 701.677 466.136 C 710.029 454, 710.803 452.384, 720.066 427.747 C 721.812 423.105, 723.393 416.284, 724.007 410.747 C 724.570 405.661, 727.124 389.917, 729.681 375.759 C 734.717 347.873, 734.712 346.823, 729.541 343.435 C 722.486 338.812, 710.014 344.283, 704.888 354.250 C 703.827 356.313, 702.795 358, 702.594 358 C 702.393 358, 700.993 357.359, 699.482 356.575 C 694.232 353.851, 687.897 358.383, 683.615 367.923 C 682.202 371.072, 680.089 374.514, 678.920 375.572 C 675.662 378.521, 674.462 381.458, 669.928 397.581 C 664.493 416.909, 661.724 422.348, 653.712 429.426 C 649.606 433.053, 645.694 437.837, 642.652 442.950 C 638.905 449.250, 636.887 451.514, 632.744 454.063 C 629.883 455.823, 625.128 459.229, 622.179 461.632 C 619.230 464.034, 616.239 466, 615.532 466 C 612.694 466, 590.566 440.862, 559.376 402.205 L 549.251 389.656 554.782 380.578 C 568.253 358.470, 578.577 331.343, 580.985 311.724 C 582.094 302.694, 581.104 286.685, 578.839 277 C 576.844 268.469, 566.801 237.484, 563.768 230.500 C 556.674 214.166, 545.732 203.984, 530.975 199.986 C 525.684 198.552, 513.345 197.399, 507 197.746 M 329.589 201.856 C 329.298 202.327, 331.745 205.815, 335.026 209.606 C 338.308 213.398, 340.995 216.781, 340.997 217.124 C 341.003 218.221, 321.793 238, 320.722 238 C 320.155 238, 317.223 235.273, 314.207 231.939 C 310.515 227.860, 308.392 226.208, 307.712 226.888 C 307.033 227.567, 309.604 231.266, 315.574 238.199 C 328.783 253.538, 333.893 258.507, 335.158 257.242 C 335.915 256.485, 334.278 253.941, 329.540 248.509 L 322.855 240.844 333.079 230.468 C 341.098 222.330, 343.656 220.281, 344.940 220.968 C 345.840 221.449, 348.579 224.354, 351.028 227.422 C 355.375 232.870, 358 234.435, 358 231.579 C 358 230.797, 355.188 227.053, 351.750 223.259 C 348.313 219.465, 342.431 212.905, 338.680 208.680 C 331.986 201.143, 330.650 200.140, 329.589 201.856 M 369.073 203.635 C 366.992 206.280, 366.351 211.429, 367.815 213.735 C 368.246 214.414, 370.010 215.252, 371.733 215.597 C 377.937 216.837, 382.319 208.756, 378.443 203.223 C 376.236 200.071, 371.719 200.270, 369.073 203.635 M 682.554 216.114 C 669.645 229.679, 666.434 235.681, 669.546 240.430 C 672.212 244.499, 680 246.045, 680 242.504 C 680 241.799, 678.437 240.929, 676.527 240.571 C 671.442 239.617, 670.694 237.449, 673.764 232.563 C 676.461 228.272, 689.626 212.386, 692.378 210.101 C 694.366 208.452, 694.476 207, 692.614 207 C 691.851 207, 687.324 211.101, 682.554 216.114 M 499.521 210.082 C 491.159 212.522, 477.024 219.016, 475.178 221.267 C 473.996 222.708, 474.261 222.838, 477.678 222.496 C 479.780 222.286, 483.173 221.413, 485.218 220.557 C 492.485 217.514, 491.374 219.168, 483.500 223.114 C 479.100 225.319, 475.050 227.594, 474.500 228.169 C 473.950 228.744, 475.750 228.108, 478.500 226.756 C 483.613 224.242, 492.888 221.555, 493.689 222.355 C 493.934 222.600, 492.416 223.357, 490.317 224.038 C 483.327 226.303, 475.540 230.776, 472 234.560 C 468.528 238.271, 469.150 238.337, 474.045 234.778 C 476.472 233.013, 487.010 229.677, 487.768 230.434 C 487.966 230.633, 485.062 232.235, 481.314 233.996 C 474.408 237.240, 471 239.610, 471 241.168 C 471 241.639, 472.865 240.848, 475.144 239.409 C 480.388 236.099, 487.600 233.611, 496.626 231.997 C 506.653 230.206, 508.088 231.324, 498.500 233.458 C 486.919 236.034, 472.758 242.092, 474.423 243.757 C 474.714 244.047, 475.525 243.852, 476.226 243.323 C 479.348 240.964, 493.801 237.982, 501.799 238.045 C 507.435 238.090, 507.466 238.106, 504.500 239.464 C 501.823 240.690, 501.742 240.846, 503.750 240.919 C 506.171 241.006, 506.794 242.513, 504.750 243.338 C 504.043 243.623, 504.369 243.934, 505.500 244.053 C 506.690 244.178, 506.083 244.561, 504 245 C 501.506 245.525, 503.303 245.775, 510.250 245.868 C 517.376 245.965, 519.933 245.676, 519.750 244.797 C 519.609 244.119, 522.338 242.625, 526 241.375 L 532.500 239.155 528.228 238.446 C 521.262 237.290, 521.757 235.585, 528.843 236.326 C 532.229 236.680, 535 236.757, 535 236.498 C 535 235.537, 527.658 233, 524.878 233 C 523.295 233, 522 232.487, 522 231.861 C 522 231.080, 523.585 230.909, 527.032 231.317 C 530.121 231.683, 531.837 231.545, 531.475 230.960 C 531.108 230.365, 531.848 230.372, 533.443 230.978 C 534.973 231.560, 536 231.579, 536 231.026 C 536 230.197, 530.901 228.420, 522.500 226.323 L 519.500 225.574 523.342 225.221 C 525.455 225.027, 528.576 225.354, 530.279 225.947 C 534.497 227.418, 536.023 225.716, 532.535 223.431 C 531.062 222.466, 526.627 220.869, 522.679 219.881 L 515.500 218.086 523.190 218.419 C 529.362 218.687, 530.996 218.452, 531.464 217.233 C 531.785 216.397, 531.876 215.543, 531.667 215.334 C 531.458 215.125, 526.835 214.074, 521.393 213 L 511.500 211.045 520 211.573 C 524.675 211.862, 529.966 212.563, 531.759 213.130 C 533.551 213.697, 535.540 213.987, 536.179 213.774 C 536.818 213.561, 534.002 212.305, 529.921 210.984 C 519.819 207.714, 508.764 207.386, 499.521 210.082 M 711.727 241.007 C 706.615 243.746, 690.327 256.706, 689.594 258.617 C 688.284 262.030, 689.094 264.902, 692.077 267.411 C 695.464 270.261, 696.541 270.552, 697.566 268.893 C 697.942 268.285, 697.069 266.692, 695.625 265.353 C 694.181 264.014, 693 262.669, 693 262.364 C 693 260.459, 697.936 255.661, 705.155 250.548 C 714.609 243.851, 718 241.021, 718 239.826 C 718 238.452, 715.677 238.889, 711.727 241.007 M 499.757 252.034 C 487.789 254.049, 474.030 260.730, 469.638 266.660 L 467.775 269.175 476.841 287.337 C 485.134 303.951, 496.962 323.211, 504.500 332.376 L 507.500 336.024 516.688 322.196 C 531.283 300.231, 545.130 274.831, 546.597 267.332 C 547.177 264.369, 546.869 263.933, 541.819 260.581 C 534.789 255.913, 527.328 253.354, 516.953 252.053 C 507.646 250.886, 506.580 250.885, 499.757 252.034 M 555.449 266.750 C 554.581 268.813, 552.554 273.650, 550.945 277.500 C 548.440 283.490, 542.935 293.559, 528.529 318.500 L 525.641 323.500 528.498 321 L 531.355 318.500 529.427 321.667 C 528.367 323.409, 525.475 327.874, 523 331.588 C 520.525 335.303, 518.500 338.693, 518.500 339.121 C 518.500 339.550, 517.938 340.463, 517.250 341.150 C 516.563 341.837, 516.015 342.872, 516.033 343.450 C 516.052 344.027, 516.839 343.577, 517.783 342.450 C 526.495 332.044, 527.707 331.261, 522.414 339.456 C 520.271 342.773, 521.532 344.714, 524.271 342.315 C 526.522 340.344, 526.111 341.421, 522.773 346.243 C 518.825 351.945, 523.919 352.795, 528.803 347.250 L 532.106 343.500 529.725 348 C 526.805 353.519, 525.897 356.818, 527.094 357.558 C 527.592 357.866, 528 357.737, 528 357.272 C 528 356.806, 529.013 356.356, 530.250 356.272 C 531.506 356.186, 534.207 354.215, 536.366 351.809 C 540.506 347.194, 540.356 347.995, 535.825 354.688 C 534.146 357.167, 533.400 359.129, 533.995 359.497 C 534.548 359.838, 535.020 361.779, 535.045 363.809 L 535.090 367.500 538.667 363.259 C 540.634 360.927, 542.977 357.578, 543.872 355.819 C 544.767 354.059, 546.088 352.434, 546.807 352.207 C 548.229 351.759, 546.585 355.150, 541.674 362.799 C 538.557 367.653, 536.690 372.030, 537.775 371.940 C 538.174 371.906, 540.525 369.186, 543 365.893 C 551.254 354.913, 551.259 354.908, 549.239 359.500 C 546.725 365.216, 542.754 372, 541.923 372 C 541.533 372, 540.957 372.668, 540.644 373.485 C 540.190 374.669, 540.422 374.753, 541.792 373.898 C 544.403 372.267, 555.321 355.514, 559.647 346.500 C 564.288 336.829, 563.862 337.528, 564.646 338.313 C 565.002 338.668, 562.992 343.448, 560.179 348.935 C 557.266 354.621, 555.681 358.676, 556.495 358.363 C 557.281 358.062, 558.196 356.957, 558.529 355.908 C 558.862 354.858, 559.480 354, 559.902 354 C 560.323 354, 562.599 349.938, 564.958 344.974 C 569.113 336.229, 574.565 317, 572.889 317 C 572.435 317, 572.345 316.212, 572.691 315.250 C 573.036 314.288, 572.988 313.796, 572.584 314.158 C 572.180 314.520, 571.725 315.420, 571.573 316.158 C 571.421 316.896, 570.240 319.750, 568.948 322.500 C 567.440 325.713, 566.471 326.893, 566.237 325.802 C 566.037 324.869, 566.373 323.172, 566.983 322.032 C 567.593 320.892, 567.777 319.448, 567.392 318.825 C 566.962 318.130, 567.138 317.967, 567.845 318.405 C 568.480 318.797, 569 318.668, 569 318.118 C 569 316.386, 566.815 315.683, 565.904 317.122 C 563.868 320.336, 565.198 304.674, 567.644 296.625 C 568.051 295.287, 567.852 294.973, 566.953 295.529 C 566.130 296.038, 565.941 295.905, 566.409 295.147 C 566.804 294.508, 566.490 293.347, 565.711 292.568 C 564.490 291.347, 563.921 291.935, 561.571 296.852 C 560.072 299.987, 557.934 303.666, 556.819 305.026 C 555.235 306.959, 555.334 306.517, 557.270 303 C 558.632 300.525, 560.762 295.695, 562.002 292.266 C 563.964 286.841, 564.092 285.635, 562.989 282.972 L 561.721 279.912 558.840 284.956 C 554.621 292.344, 554.518 291.108, 558.672 282.931 C 561.886 276.605, 562.127 275.606, 560.963 273.431 C 560.247 272.094, 559.299 271, 558.856 271 C 558.412 271, 558.488 269.846, 559.025 268.435 C 560.724 263.965, 560.026 263.339, 557.983 267.500 C 556.193 271.143, 556.057 270.325, 557.567 265 C 558.526 261.620, 557.118 262.784, 555.449 266.750 M 456.816 272 C 456.519 272.825, 457.794 277.732, 459.650 282.904 C 465.067 297.997, 462.699 295.380, 455.212 278 C 454.161 275.559, 454.131 275.583, 453.963 279 L 453.790 282.500 452.472 278.500 C 450.793 273.407, 450.507 277.155, 452.093 283.455 C 453.739 289.991, 452.798 292.465, 450.554 287.500 C 449.559 285.300, 448.573 282.183, 448.362 280.572 C 447.837 276.567, 447 276.003, 447 279.654 C 447 283.117, 450.119 298.200, 453.045 308.883 C 455.045 316.186, 455.026 319.829, 453.016 314.543 C 451.938 311.707, 447.937 297.491, 446.249 290.500 C 444.705 284.104, 443.488 288.970, 444.607 297.067 C 445.532 303.758, 444.768 305.771, 443.497 299.989 C 442.353 294.780, 441.338 296.764, 442.083 302.750 C 443.362 313.012, 446.591 323.805, 452.405 337.250 C 453.297 339.313, 453.632 341, 453.150 341 C 452.137 341, 448.430 332.809, 444.550 322 C 443.069 317.875, 441.440 313.466, 440.929 312.203 C 440.418 310.940, 440 309.027, 440 307.953 C 440 306.879, 439.652 306, 439.226 306 C 438.800 306, 438.761 310.163, 439.138 315.250 C 439.945 326.113, 444.245 340.521, 450.254 352.492 C 456.841 365.614, 468.160 385.447, 469.514 386.237 C 470.209 386.643, 471.061 388.105, 471.407 389.487 C 471.754 390.869, 472.506 392, 473.078 392 C 473.650 392, 473.793 392.526, 473.395 393.170 C 472.897 393.975, 473.235 394.124, 474.477 393.647 C 475.956 393.080, 476.068 393.213, 475.098 394.382 C 474.136 395.542, 474.483 396.095, 476.947 397.324 C 478.666 398.181, 480.228 398.439, 480.550 397.919 C 480.862 397.414, 480.615 397, 480 397 C 479.385 397, 479.196 396.492, 479.579 395.872 C 480.056 395.101, 480.567 395.263, 481.193 396.381 C 481.698 397.282, 483.098 399.105, 484.305 400.433 C 489.613 406.269, 491.212 409.102, 490.796 411.935 C 490.494 413.996, 490.742 414.652, 491.688 414.289 C 492.410 414.013, 493 414.311, 493 414.952 C 493 415.593, 493.406 415.867, 493.902 415.561 C 495.138 414.797, 499.188 421.866, 498.351 423.327 C 497.982 423.972, 498.014 424.200, 498.423 423.833 C 499.477 422.888, 502.198 425.915, 504.250 430.315 C 506.210 434.519, 506.489 436.420, 505.011 435.507 C 504.439 435.153, 504.280 435.567, 504.635 436.491 C 504.972 437.368, 505.341 437.954, 505.456 437.793 C 505.571 437.632, 508.563 433.900, 512.104 429.500 C 515.646 425.100, 520.982 418.125, 523.962 414 C 526.942 409.875, 531.769 403.272, 534.688 399.327 C 539.759 392.474, 541.455 388.730, 539.681 388.303 C 539.230 388.195, 537.297 386.057, 535.385 383.553 C 533.473 381.049, 531.666 379, 531.370 379 C 531.074 379, 532.274 380.821, 534.037 383.046 C 535.799 385.271, 537.027 387.307, 536.764 387.569 C 536.212 388.122, 531.587 382.814, 522.751 371.485 C 519.313 367.077, 513.320 359.652, 509.434 354.985 C 500.965 344.814, 482.927 319.318, 476.457 308.372 C 473.898 304.042, 471.388 300.242, 470.879 299.927 C 470.370 299.611, 469.783 298.486, 469.574 297.427 C 468.768 293.331, 457.338 270.551, 456.816 272 M 311.979 304.548 C 308.017 313.791, 304.740 333, 307.125 333 C 307.594 333, 307.953 331.988, 307.924 330.750 C 307.864 328.279, 309.884 319.908, 312.364 312.349 C 314 307.364, 315.207 300, 314.389 300 C 314.136 300, 313.052 302.047, 311.979 304.548 M 704.816 303.508 C 704.262 304.421, 706.339 316.894, 709.477 331.500 L 710.766 337.500 710.883 331.708 C 711.048 323.518, 706.238 301.162, 704.816 303.508 M 518.479 345.024 C 516.752 346.931, 516.762 347, 518.738 347 C 519.864 347, 521.040 346.339, 521.349 345.532 C 522.249 343.187, 520.432 342.865, 518.479 345.024 M 715.244 351.398 C 713.175 353.268, 710.439 356.653, 709.164 358.923 L 706.845 363.048 710.763 362.422 C 713.607 361.967, 715.885 362.348, 719.077 363.811 C 721.494 364.919, 723.745 365.658, 724.077 365.452 C 724.410 365.247, 725.483 362.119, 726.462 358.502 C 728.168 352.201, 728.168 351.843, 726.466 349.963 C 723.745 346.956, 719.570 347.490, 715.244 351.398 M 693.083 363.583 C 690.757 365.541, 689.386 368.225, 687.421 374.665 C 685.996 379.339, 685.040 383.374, 685.298 383.631 C 685.556 383.889, 687.215 381.715, 688.985 378.800 C 690.755 375.885, 693.790 371.847, 695.730 369.827 C 698.559 366.880, 699.128 365.645, 698.609 363.577 C 697.798 360.348, 696.927 360.349, 693.083 363.583 M 677.599 393.500 C 676.054 402.026, 672.648 411.751, 669.220 417.427 C 667.251 420.688, 665.582 424.140, 665.511 425.099 C 665.440 426.058, 662.679 429.130, 659.374 431.925 C 656.069 434.720, 652.334 438.917, 651.075 441.253 C 649.188 444.752, 650.752 443.475, 659.959 434 C 666.105 427.675, 671.795 421.253, 672.603 419.729 C 674.281 416.565, 679.355 392.557, 678.734 390.715 C 678.509 390.047, 677.998 391.300, 677.599 393.500 M 484 406.031 C 484 406.599, 484.672 407.321, 485.494 407.636 C 486.316 407.952, 486.759 408.581, 486.478 409.036 C 486.197 409.490, 486.494 410.187, 487.138 410.585 C 487.843 411.021, 488.042 410.877, 487.638 410.224 C 487.269 409.627, 487.425 408.856, 487.984 408.510 C 488.543 408.165, 489.036 408.696, 489.079 409.691 C 489.129 410.836, 489.350 411.020, 489.682 410.192 C 489.970 409.473, 489.414 408.010, 488.448 406.942 C 486.565 404.862, 484 404.336, 484 406.031 M 548.146 411.324 C 547.214 412.447, 549.472 415.281, 559.744 425.883 C 566.760 433.123, 572.192 438.924, 571.815 438.774 C 570.258 438.152, 550 419.666, 550 418.868 C 550 418.391, 549.550 418, 549 418 C 547.006 418, 548.142 420.593, 552.067 425 C 554.271 427.475, 558.788 433.100, 562.104 437.500 L 568.134 445.500 562.817 439.823 C 559.893 436.701, 554.125 430.321, 550 425.645 C 545.875 420.969, 542.087 417.111, 541.583 417.071 C 541.079 417.032, 540.963 417.296, 541.325 417.658 C 541.687 418.020, 541.460 418.945, 540.822 419.714 C 539.897 420.829, 540.497 421.964, 543.779 425.306 C 546.043 427.613, 550.057 431.950, 552.698 434.944 C 559.726 442.913, 553.361 438.225, 545.109 429.355 C 541.601 425.585, 538.556 422.982, 538.342 423.571 C 537.804 425.050, 540.807 432, 541.983 432 C 543.149 432, 561 452.649, 561 453.997 C 561 454.524, 559.087 452.839, 556.750 450.253 C 548.247 440.846, 535.661 428, 534.946 428 C 532.905 428, 533.176 431.647, 535.459 434.907 C 541.099 442.957, 541.236 443.370, 536.898 439.250 C 528.804 431.561, 526.746 434.680, 533.520 444.370 C 538.923 452.100, 538.135 453.290, 532.414 446.040 C 528.361 440.904, 526 439.703, 526 442.777 C 526 444.648, 530.031 450.348, 538.750 460.807 C 541.638 464.270, 544 467.307, 544 467.555 C 544 468.211, 529.650 453.041, 528.689 451.369 C 527.606 449.486, 525.917 450.621, 526.714 452.696 C 527.132 453.787, 526.952 454.088, 526.170 453.605 C 525.526 453.207, 525 453.148, 525 453.473 C 525 454.225, 541.929 473.773, 548.362 480.449 C 555.250 487.599, 561.280 495.627, 564.416 501.826 C 567.549 508.018, 569.368 507.682, 570.419 500.718 C 571.574 493.062, 573.271 489.467, 575.576 489.797 C 577.544 490.078, 582.980 485.548, 588.588 478.955 C 591.795 475.184, 595.403 472.389, 597.911 471.734 C 600.148 471.148, 600.155 471.173, 598.342 473.293 C 597.269 474.548, 597.960 474.227, 600 472.524 L 603.500 469.602 600.250 466.106 C 597.234 462.861, 595.721 459.092, 598 460.500 C 598.550 460.840, 599 461.682, 599 462.371 C 599 463.808, 604.503 468.164, 605.305 467.361 C 605.598 467.069, 603.061 463.899, 599.668 460.317 C 596.276 456.736, 593.205 453.061, 592.844 452.152 C 592.109 450.304, 582.323 440.500, 581.212 440.500 C 580.820 440.500, 580.600 440.201, 580.722 439.835 C 580.843 439.470, 577.990 436.545, 574.381 433.335 C 570.772 430.126, 563.653 423.547, 558.562 418.715 C 550.979 411.519, 549.094 410.182, 548.146 411.324 M 442.468 430.707 C 423.616 453.673, 417.039 462, 417.755 462 C 418.175 462, 419.068 462.879, 419.739 463.954 C 420.640 465.396, 420.662 466.091, 419.825 466.608 C 419.134 467.035, 418.967 466.863, 419.397 466.166 C 419.862 465.415, 419.545 465.237, 418.474 465.648 C 416.995 466.216, 416.989 466.418, 418.413 467.841 C 419.836 469.265, 420.126 469.229, 421.564 467.455 C 422.436 466.380, 422.893 466.015, 422.580 466.645 C 421.529 468.763, 424.710 468.854, 428.119 466.803 L 431.500 464.770 429.143 467.313 L 426.786 469.857 429.393 472.668 C 430.827 474.214, 432 475.853, 432 476.310 C 432 476.767, 433.731 479.247, 435.846 481.821 C 439.174 485.869, 443.508 493.076, 448.734 503.250 C 449.557 504.853, 450.975 506, 452.132 506 C 453.224 506, 453.840 506.450, 453.500 507 C 453.160 507.550, 453.099 508, 453.364 508 C 453.860 508, 461.959 496.671, 463.371 494 C 463.808 493.175, 462.368 494.521, 460.172 496.990 C 457.976 499.460, 456.433 501.892, 456.744 502.395 C 457.055 502.898, 456.786 502.986, 456.147 502.591 C 455.497 502.189, 454.722 502.562, 454.386 503.437 C 454.056 504.296, 453.372 505, 452.865 505 C 452.017 505, 457.019 497.945, 465.546 487.112 C 467.446 484.699, 469 482.352, 469 481.897 C 469 481.442, 469.968 480.552, 471.151 479.919 L 473.301 478.769 471.082 481.884 C 469.862 483.598, 469.077 485, 469.338 485 C 469.599 485, 471.542 482.640, 473.656 479.756 C 480.929 469.834, 480.579 470.384, 478.905 471.500 C 478.080 472.050, 478.195 471.768, 479.160 470.874 C 480.125 469.980, 480.696 469.030, 480.429 468.763 C 480.162 468.496, 480.436 466.977, 481.037 465.389 L 482.130 462.500 478.604 465.908 C 476.665 467.783, 475.355 469.765, 475.693 470.313 C 476.032 470.861, 475.850 471.026, 475.290 470.679 C 474.729 470.333, 471.227 473.656, 467.508 478.064 C 463.788 482.472, 460.516 485.849, 460.236 485.569 C 459.698 485.032, 468.889 473.269, 475.134 466.500 C 482.973 458.004, 485.199 454.960, 484.637 453.497 C 484.321 452.674, 483.638 452, 483.119 452 C 482.600 452, 477.842 456.950, 472.545 463 C 467.247 469.050, 462.704 474, 462.447 474 C 461.600 474, 468.383 465.385, 475.635 457.251 C 481.500 450.673, 482.682 448.787, 482.274 446.655 C 481.312 441.618, 479.659 441.774, 475.234 447.319 C 472.940 450.194, 469.381 454.111, 467.327 456.023 L 463.591 459.500 467.463 454.500 C 469.592 451.750, 472.520 448.150, 473.970 446.500 C 479.291 440.441, 479.327 440.314, 475.747 440.212 C 473.716 440.154, 471.589 440.939, 470.063 442.310 L 467.624 444.500 469.812 441.615 C 472.057 438.655, 472.483 436.422, 471.360 433.497 C 470.848 432.161, 469.322 433.186, 463.668 438.665 L 456.614 445.500 461.482 439.500 C 464.159 436.200, 467.034 432.936, 467.871 432.246 C 469.809 430.650, 468.506 429.287, 464.346 428.558 C 461.418 428.045, 460.931 428.398, 457.571 433.459 C 455.580 436.458, 453.476 439.206, 452.894 439.565 C 451.854 440.208, 455.305 434.320, 459.338 428.569 C 460.468 426.958, 460.855 425.972, 460.197 426.378 C 459.416 426.861, 459 426.403, 459 425.059 C 459 422.658, 458.195 422.493, 455.473 424.334 C 452.318 426.467, 450.116 426.997, 449.378 425.802 C 448.987 425.169, 449.142 424.970, 449.739 425.339 C 450.375 425.731, 450.731 425.005, 450.644 423.494 C 450.565 422.123, 450.486 421.001, 450.468 421.001 C 450.451 421, 446.851 425.368, 442.468 430.707 M 330.004 429.293 C 330 431.146, 338.569 441, 340.185 441 C 340.686 441, 339.438 439.313, 337.412 437.250 C 335.385 435.188, 332.890 432.150, 331.867 430.500 C 330.526 428.336, 330.006 427.999, 330.004 429.293 M 378.828 457.018 C 380.291 460.328, 381.629 462.613, 381.801 462.097 C 382.114 461.159, 377.322 451, 376.567 451 C 376.348 451, 377.365 453.708, 378.828 457.018 M 525.659 458.676 C 526.671 460.423, 530.435 465.598, 534.022 470.176 C 537.609 474.754, 544.076 483.328, 548.393 489.228 C 552.710 495.129, 556.976 500.529, 557.871 501.228 C 559.348 502.381, 559.363 502.313, 558.038 500.500 C 557.234 499.400, 558.017 499.817, 559.778 501.427 C 561.539 503.037, 563.284 504.050, 563.656 503.677 C 564.029 503.305, 563.883 503, 563.333 503 C 562.783 503, 562.333 502.411, 562.333 501.691 C 562.333 498.249, 549.129 481.870, 535.978 469 C 532.888 465.975, 528.887 461.700, 527.088 459.500 C 524.352 456.154, 524.118 456.019, 525.659 458.676 M 387.025 460.565 C 388.460 464.341, 388.256 466.312, 386.500 465.638 C 383.370 464.437, 385.239 466.921, 391.960 472.895 C 396.764 477.164, 401.179 480.007, 406.210 482.071 C 414.207 485.351, 423.576 489.971, 428.967 493.294 L 432.434 495.431 428.967 490.568 C 424.316 484.045, 412.841 474.274, 406.327 471.292 C 403.418 469.960, 400.755 468.412, 400.408 467.852 C 399.535 466.439, 387.977 458, 386.915 458 C 386.439 458, 386.488 459.154, 387.025 460.565 M 628.500 463.089 C 624.650 465.847, 618.356 469.715, 614.513 471.684 C 607.299 475.380, 597.268 484.647, 594.329 490.331 L 592.801 493.286 596.150 491.268 C 597.993 490.159, 604.772 486.868, 611.217 483.955 C 617.661 481.042, 625.266 476.824, 628.118 474.580 C 632.690 470.982, 633.504 469.762, 635.010 464.250 C 635.949 460.813, 636.443 458.017, 636.109 458.037 C 635.774 458.057, 632.350 460.331, 628.500 463.089 M 639.523 461.500 C 634.321 470.039, 634.540 469.591, 636.260 468.182 C 637.878 466.856, 642.368 459, 641.507 459 C 641.254 459, 640.361 460.125, 639.523 461.500 M 665 473.608 C 662.270 475.305, 656.481 482.814, 657.283 483.617 C 657.558 483.891, 658.814 482.627, 660.076 480.808 C 661.338 478.988, 663.750 476.281, 665.435 474.791 C 668.883 471.743, 668.718 471.296, 665 473.608 M 383.038 515.500 C 393.242 526.935, 408.949 538.377, 438.968 556.246 C 444.408 559.484, 454.002 568.232, 457.341 573 C 458.304 574.375, 458.058 573.524, 456.796 571.109 C 451.537 561.051, 432.560 543.063, 422 538.128 C 419.895 537.144, 419.797 537.160, 421.381 538.230 C 431.263 544.902, 446.594 558, 444.522 558 C 444.068 558, 438.702 554.707, 432.598 550.683 C 426.494 546.658, 418.125 541.391, 414 538.979 C 403.074 532.590, 397.119 527.951, 384.038 515.640 L 378.577 510.500 383.038 515.500 M 455.560 519.549 C 451.501 525.744, 448 532.202, 448 533.494 C 448 534.268, 448.688 535.286, 449.529 535.756 C 450.370 536.227, 456.261 541.762, 462.619 548.056 C 470.312 555.672, 475.822 562.162, 479.090 567.458 C 484.171 575.694, 485.024 575.719, 482.569 567.562 C 480.911 562.053, 478.154 557.773, 468.683 546 L 461.845 537.500 469.418 545.500 C 479.603 556.260, 486.415 569.263, 486.466 578.041 C 486.485 581.317, 486.879 583.998, 487.343 583.999 C 488.584 584.001, 487.598 574.463, 485.587 567 C 483.534 559.384, 477.688 547.001, 474.064 542.593 C 472.656 540.880, 472.344 540.151, 473.366 540.960 C 476.590 543.511, 482.922 553.675, 485.984 561.213 C 487.612 565.221, 488.957 567.944, 488.972 567.265 C 489.034 564.510, 482.647 547.108, 479.516 541.500 C 475.882 534.992, 467.239 524.942, 461.084 520.067 L 457.224 517.009 455.560 519.549 M 604.960 527.386 C 589.516 531.994, 570.293 543.325, 565.494 550.650 C 564.400 552.319, 566.044 551.363, 570.329 547.839 C 577.690 541.785, 590.263 534.944, 594 534.959 C 595.703 534.966, 596.084 534.705, 595.195 534.141 C 594.331 533.594, 596.950 532.218, 602.934 530.078 C 607.909 528.298, 612.236 526.428, 612.549 525.921 C 612.862 525.415, 612.979 525.031, 612.809 525.068 C 612.639 525.105, 609.107 526.148, 604.960 527.386 M 415 529.542 C 415 529.840, 418.488 531.716, 422.750 533.710 C 429.403 536.824, 439.856 542.758, 449 548.612 C 450.375 549.492, 449.700 548.554, 447.500 546.527 C 440.603 540.173, 415 526.792, 415 529.542 M 557.055 536.250 C 549.295 543.275, 540.965 553.248, 541.034 555.431 C 541.052 556.019, 542.497 554.700, 544.245 552.500 C 545.992 550.300, 551.687 544.112, 556.898 538.750 C 562.110 533.388, 566.079 529, 565.719 529 C 565.358 529, 561.459 532.263, 557.055 536.250 M 586.725 540.934 C 579.955 544.619, 575.613 548, 577.651 548 C 578.245 548, 579.803 547.162, 581.115 546.137 C 582.427 545.113, 585.330 543.346, 587.567 542.211 C 589.804 541.075, 592.221 539.438, 592.939 538.573 C 594.560 536.621, 594.853 536.509, 586.725 540.934 M 563.250 544.934 C 559.633 547.554, 557.224 550, 558.260 550 C 558.469 550, 561.051 548.200, 564 546 C 566.949 543.800, 568.897 542, 568.331 542 C 567.764 542, 565.477 543.320, 563.250 544.934 M 461.500 570.442 C 463.700 574.998, 465.662 578.302, 465.860 577.784 C 466.277 576.691, 460.227 564.436, 458.599 563.076 C 457.994 562.572, 459.300 565.886, 461.500 570.442 M 548.051 565.595 C 540.942 573.691, 533.102 588.806, 534.240 592.221 C 534.458 592.874, 535.731 590.295, 537.068 586.490 C 538.484 582.463, 542.096 575.901, 545.712 570.786 C 549.128 565.954, 551.762 562, 551.565 562 C 551.368 562, 549.787 563.618, 548.051 565.595" stroke="none" fill="#224e63" fill-rule="evenodd"/><path d="M 0 384.001 L 0 768.002 512.250 767.751 L 1024.500 767.500 1024.751 383.750 L 1025.003 0 512.501 0 L 0 0 0 384.001 M 0.495 384.500 C 0.495 595.700, 0.610 681.951, 0.750 576.169 C 0.890 470.386, 0.890 297.586, 0.750 192.169 C 0.610 86.751, 0.495 173.300, 0.495 384.500 M 510.946 139.101 C 509.513 141.778, 507.379 156.532, 506.512 169.750 C 505.947 178.362, 506.072 180, 507.295 180 C 508.922 180, 509.992 175.921, 510.015 169.625 C 510.024 167.356, 510.361 164.992, 510.765 164.370 C 511.169 163.749, 514.425 162.929, 518 162.548 C 526.106 161.685, 528.185 161.109, 527.456 159.928 C 527.140 159.418, 523.871 158.993, 520.191 158.985 C 510.752 158.963, 510.639 158.833, 511.931 149.543 C 512.523 145.282, 513.273 141.367, 513.597 140.842 C 513.921 140.318, 518.532 139.970, 523.843 140.069 C 529.154 140.167, 533.639 139.855, 533.809 139.374 C 534.313 137.949, 530.054 137.206, 520.785 137.100 C 512.900 137.009, 511.963 137.200, 510.946 139.101 M 553.295 162.014 C 550.580 163.108, 547 169.874, 547 173.913 C 547 180.703, 550.644 184, 558.147 184 C 561.451 184, 562.851 183.349, 565.725 180.475 C 569.045 177.155, 569.221 176.650, 568.753 171.785 C 567.933 163.252, 561.041 158.896, 553.295 162.014 M 445 163.706 C 439.520 165.709, 435.757 174.586, 438.046 180.111 C 439.675 184.044, 444.685 186.337, 449.624 185.411 C 453.534 184.677, 459 180.596, 459 178.411 C 459 176.458, 458.174 176.632, 454.594 179.341 C 450.280 182.606, 446.840 183.276, 444.132 181.380 C 442.902 180.518, 442.032 179.454, 442.198 179.016 C 442.364 178.577, 444.863 176.358, 447.750 174.086 C 453.307 169.711, 454.160 167.360, 451.171 164.655 C 449.311 162.972, 447.691 162.723, 445 163.706 M 554.500 166.247 C 550.909 169.336, 549.706 177.580, 552.544 179.656 C 558.400 183.938, 567.739 176.704, 565.149 169.893 C 563.143 164.616, 558.317 162.963, 554.500 166.247 M 443.571 168.571 C 441.905 170.238, 441.440 173, 442.826 173 C 443.797 173, 448 168.683, 448 167.686 C 448 166.417, 445.157 166.986, 443.571 168.571 M 593.656 172.717 C 592.183 175.587, 588 189.709, 588 191.814 C 588 194.276, 589.840 192.815, 593.746 187.250 C 599.005 179.758, 601.267 177.803, 604.887 177.621 C 608.998 177.414, 609.791 176.251, 606.639 175.053 C 604.909 174.395, 603.117 174.385, 601.435 175.025 C 597.059 176.688, 595.709 176.296, 596.395 173.561 C 597.279 170.041, 595.338 169.442, 593.656 172.717 M 407.894 175.114 C 406.461 175.640, 404.720 177.292, 404.024 178.785 L 402.758 181.500 401.714 179.222 C 400.170 175.856, 398.490 177.123, 398.570 181.592 C 398.672 187.318, 401.813 208.916, 403.280 213.982 C 403.975 216.383, 405.166 218.555, 405.926 218.809 C 407.035 219.178, 407.176 218.303, 406.637 214.385 C 404.474 198.674, 404.458 199, 407.412 199 C 419.074 199, 425.782 180.558, 415.966 175.483 C 412.728 173.808, 411.594 173.756, 407.894 175.114 M 407.548 180.567 C 405.102 184.300, 403.280 193.680, 404.721 195.121 C 406.225 196.625, 410.274 195.528, 413.514 192.741 C 416.999 189.744, 418.063 182.832, 415.480 179.978 C 412.991 177.227, 409.570 177.482, 407.548 180.567 M 661 190.200 C 652.552 195.507, 643.164 201.072, 634.767 205.749 C 631.064 207.812, 628.026 209.789, 628.017 210.143 C 628.008 210.497, 628.749 211.074, 629.665 211.425 C 630.690 211.818, 633.284 210.796, 636.415 208.765 C 646.091 202.489, 646.077 202.492, 651.330 205.665 C 653.899 207.216, 655.997 208.939, 655.992 209.493 C 655.988 210.047, 655.092 213.425, 654 217 C 651.734 224.422, 651.526 226.411, 653.120 225.426 C 654.214 224.750, 662 208.726, 663.442 204.183 C 663.841 202.924, 665.705 199.175, 667.584 195.851 C 673.655 185.110, 671.731 183.459, 661 190.200 M 657.159 196.275 L 649.935 200.500 653.191 203.259 C 654.981 204.776, 656.908 205.875, 657.473 205.700 C 658.635 205.339, 665.406 193.072, 664.785 192.452 C 664.564 192.231, 661.132 193.951, 657.159 196.275 M 367.855 198.695 C 362.572 201.973, 361.657 211.877, 366.190 216.702 C 370.713 221.517, 381.392 218.103, 383.369 211.209 C 386.193 201.361, 376.351 193.423, 367.855 198.695 M 507 197.746 C 484.126 198.995, 461.977 209.497, 456.778 221.558 C 445.058 248.746, 433.265 287.806, 432.269 302.733 C 431.272 317.693, 435.168 333.967, 444.430 353.531 C 449.917 365.120, 461.253 385.504, 463.552 387.915 C 465.177 389.619, 464.800 390.207, 451.008 407.500 C 445.744 414.100, 434.610 428.500, 426.265 439.500 C 417.921 450.500, 409.827 460.904, 408.279 462.620 L 405.464 465.739 400.982 461.735 C 398.517 459.533, 394.103 456.130, 391.174 454.174 C 387.476 451.703, 384.458 448.460, 381.295 443.558 C 378.790 439.676, 372.739 432.412, 367.848 427.415 L 358.955 418.329 356.942 407.915 C 354.074 393.075, 353.291 390.517, 348.702 381 C 342.305 367.735, 330.256 357.148, 322.799 358.243 C 320.344 358.603, 319.634 358.182, 318.323 355.586 C 314.068 347.164, 308.962 343.316, 299.778 341.611 C 295.523 340.821, 290.721 342.783, 288.989 346.020 C 287.854 348.141, 289.680 367.579, 292.510 383.500 C 293.292 387.900, 294.599 395.325, 295.416 400 C 296.232 404.675, 298.639 416.418, 300.765 426.096 C 304.970 445.240, 306.321 448.335, 315.228 459.228 C 318.127 462.774, 323.200 469.407, 326.500 473.967 C 329.800 478.528, 336.695 487.904, 341.821 494.803 C 346.948 501.703, 352.187 509.407, 353.463 511.924 C 356.436 517.787, 356.769 518.050, 374 528.179 C 392.876 539.275, 399.102 542.608, 413 549.054 C 422.790 553.595, 430.009 557.752, 443.833 566.810 C 448.776 570.049, 444.330 564.378, 436.940 558.017 C 427.858 550.201, 424.557 548.161, 406.500 539.205 C 391.938 531.983, 368.421 518.466, 364.630 515.141 C 363.601 514.238, 360.275 509.735, 357.239 505.133 C 350.251 494.540, 339.282 479.735, 327.507 465 C 317.337 452.275, 312.002 443.866, 309.656 436.868 C 308.802 434.320, 307.159 425.545, 306.004 417.368 C 302.896 395.366, 297.123 362.058, 295.457 356.523 C 293.555 350.204, 293.619 349, 295.854 349 C 298.594 349, 302.485 353.054, 305.578 359.131 C 307.082 362.084, 308.493 363.971, 308.714 363.325 C 309.312 361.578, 305.225 353.964, 301.696 350.250 C 298.147 346.515, 298.584 346.233, 303.790 348.903 C 307.678 350.897, 310.471 353.632, 313.350 358.268 C 314.871 360.716, 314.893 361.104, 313.535 361.625 C 311.371 362.455, 311.590 367.590, 314.112 375.161 C 315.877 380.462, 316.343 385.102, 316.954 403.500 C 317.356 415.600, 318.206 427.072, 318.842 428.993 C 319.479 430.915, 320 434.096, 320 436.062 C 320 440.522, 322.746 450, 324.039 450 C 325.305 450, 325.253 449.404, 323.466 443.515 L 321.954 438.530 327.020 443.515 C 330.306 446.749, 333.740 451.748, 336.793 457.745 C 341.644 467.274, 343.679 469.430, 342.463 463.750 C 342.080 461.963, 341.994 460.725, 342.272 461 C 343.448 462.162, 349.905 470.957, 353.835 476.750 C 356.167 480.187, 358.309 483, 358.596 483 C 359.732 483, 352.624 470.991, 347.323 463.956 C 341.764 456.577, 335.247 444, 336.983 444 C 337.477 444, 338.160 444.450, 338.500 445 C 338.840 445.550, 339.563 446, 340.107 446 C 340.650 446, 338.815 443.720, 336.028 440.933 C 328.961 433.866, 325.124 425.838, 323.955 415.675 C 323.048 407.781, 322.795 387.432, 323.655 391.500 C 323.888 392.600, 324.294 394.512, 324.558 395.750 C 324.822 396.988, 325.437 398, 325.924 398 C 327.468 398, 325.906 389.858, 322.250 378.846 C 318.116 366.397, 318.331 364.484, 323.761 365.440 C 336.406 367.665, 344.314 381.102, 351.378 412.368 L 354.963 428.236 360.731 434.611 C 369.366 444.152, 374.257 451.678, 378.262 461.583 C 380.402 466.874, 385.755 476.396, 391.428 485 C 401.683 500.554, 404.301 503.130, 395.853 489.354 C 393.022 484.738, 390.973 480.694, 391.300 480.367 C 391.626 480.040, 393.859 482.862, 396.261 486.637 C 398.664 490.411, 401.649 495.075, 402.895 497 L 405.160 500.500 404.521 497.500 C 404.170 495.850, 403.009 492.670, 401.941 490.434 C 400.874 488.198, 400 486.021, 400 485.596 C 400 484.544, 421.939 496.197, 430.032 501.546 C 438.112 506.887, 442.087 514.207, 444.007 527.278 L 444.856 533.056 458.458 546.178 C 465.940 553.395, 473.365 561.233, 474.959 563.594 C 479.072 569.688, 482.008 576.734, 481.953 580.377 C 481.908 583.382, 481.840 583.331, 480.135 579 C 477.440 572.152, 474.053 567.402, 464.362 556.875 C 452.047 543.499, 447.143 539.624, 434.432 533.227 C 428.767 530.376, 414.029 525.638, 413.249 526.417 C 413.045 526.621, 415.043 527.562, 417.689 528.507 C 425.502 531.298, 440.685 538.688, 445.774 542.177 C 448.373 543.959, 452.674 547.444, 455.331 549.921 C 460.542 554.779, 472.353 569.315, 475.709 575 C 477.952 578.800, 481 588.537, 481 591.904 C 481 595.116, 482.841 594.394, 483.767 590.818 C 484.221 589.068, 485.137 587.454, 485.804 587.232 C 486.720 586.927, 486.763 587.492, 485.980 589.553 C 484.464 593.540, 485.331 593.526, 488.861 589.506 C 493.978 583.678, 496.320 578.159, 496.290 572 C 496.258 565.371, 489.950 547.974, 483.953 537.972 C 479.919 531.244, 467.707 518.009, 462.755 514.997 L 459.953 513.293 463.658 507.906 C 465.696 504.943, 471.027 497.790, 475.504 492.010 C 479.982 486.229, 485.599 478.575, 487.988 475 C 494.425 465.365, 508.208 447, 509.003 447 C 510.752 447, 559 511.383, 559 513.716 C 559 514.246, 557.987 515.141, 556.749 515.705 C 552.824 517.493, 542.243 526.901, 538.658 531.790 C 533.789 538.429, 526.551 553.240, 523.009 563.813 C 519.905 573.077, 518.958 582.514, 521.207 581.764 C 521.905 581.532, 523.873 584.449, 525.874 588.681 C 527.776 592.706, 529.700 596, 530.148 596 C 530.595 596, 530.802 594.087, 530.606 591.750 C 530.410 589.413, 530.453 588.563, 530.702 589.862 C 531.148 592.188, 531.176 592.194, 532.561 590.216 C 533.335 589.111, 535.142 584.955, 536.576 580.979 C 538.010 577.004, 541.410 570.544, 544.133 566.625 C 547.639 561.578, 548.123 560.558, 545.790 563.129 C 543.979 565.124, 540.139 570.749, 537.256 575.629 C 534.372 580.508, 532.010 584.125, 532.007 583.667 C 532.003 583.208, 532.923 579.218, 534.051 574.800 C 537.040 563.092, 535.862 561.957, 532.182 573 C 529.139 582.130, 529.039 582.286, 529.610 577 C 530.362 570.043, 533.448 560.554, 536.464 555.928 C 538.975 552.077, 543.753 546.534, 554 535.585 C 557.649 531.687, 559.184 529.560, 557.500 530.736 C 552.124 534.493, 533.914 555.529, 532.090 560.090 C 531.454 561.682, 531.105 561.935, 531.063 560.835 C 530.929 557.307, 537.402 542.664, 541.505 537.215 C 543.871 534.072, 549.214 528.233, 553.377 524.240 L 560.948 516.980 563.978 522.240 C 565.644 525.133, 567.546 528.962, 568.205 530.750 C 570.181 536.117, 570.638 535.666, 578.084 521 C 581.016 515.225, 584.334 509.216, 585.457 507.647 C 587.489 504.810, 603.972 493.421, 609.281 491.185 C 611.966 490.055, 612.023 490.092, 610.903 492.257 C 610.265 493.491, 609.238 495.210, 608.622 496.079 C 608.005 496.947, 609.975 495.096, 613 491.967 C 618.125 486.664, 625 481.182, 625 482.397 C 625 482.691, 623.390 485.860, 621.422 489.441 C 619.454 493.021, 618.002 496.749, 618.194 497.725 C 618.433 498.935, 619.636 497.589, 621.970 493.500 C 623.853 490.200, 628.876 483.852, 633.131 479.393 C 639.160 473.075, 641.889 469.185, 645.499 461.766 C 649.828 452.868, 654.939 446, 657.231 446 C 657.778 446, 663.094 441.090, 669.044 435.090 C 679.510 424.534, 679.929 423.942, 681.938 416.840 C 689.990 388.367, 691.019 385.825, 697.828 377.585 C 703.303 370.959, 709.532 367.080, 715.907 366.325 L 721.081 365.712 717.555 373.448 C 713.761 381.773, 709.958 393.539, 710.068 396.608 C 710.105 397.649, 711.675 395.350, 713.557 391.500 C 715.438 387.650, 716.777 385.400, 716.533 386.500 C 715.593 390.727, 713.110 406.785, 712.467 412.799 C 711.884 418.240, 711.008 420.281, 706.027 427.799 C 702.856 432.584, 698.515 438.073, 696.381 439.995 C 692.876 443.152, 692.932 443.031, 696.958 438.745 C 699.410 436.135, 700.930 434, 700.336 434 C 699.271 434, 693.498 440.175, 689.411 445.684 C 687.123 448.769, 676 467.970, 676 468.836 C 676 470.036, 682.400 463.134, 686.318 457.709 C 688.988 454.012, 692.567 450.648, 696.217 448.407 C 699.361 446.476, 703.589 443.007, 705.613 440.698 C 707.636 438.389, 709.036 437.235, 708.722 438.133 C 708.409 439.030, 707.232 442.748, 706.105 446.394 C 703.374 455.238, 703.579 454.910, 690.916 470.699 C 684.829 478.290, 677.021 488.775, 673.565 494 C 662.287 511.049, 660.531 512.796, 647.027 520.408 C 634.394 527.529, 623.940 532.288, 623.023 531.336 C 622.735 531.038, 624.972 528.703, 627.994 526.147 C 634.661 520.507, 644.281 511.183, 641.500 513.055 C 640.400 513.796, 639.050 514.874, 638.500 515.451 C 637.950 516.028, 635.250 518.250, 632.500 520.389 C 629.750 522.527, 626.054 525.821, 624.286 527.708 C 621.007 531.210, 605.514 540.998, 603.250 540.999 C 602.563 541, 602 541.401, 602 541.892 C 602 542.382, 600.933 543.051, 599.629 543.378 C 597.183 543.992, 581.549 553.298, 576.842 556.942 C 572.931 559.970, 572.065 559.447, 575.617 556.203 C 580.523 551.722, 588.291 546.316, 591 545.498 C 594.639 544.399, 601.269 540.936, 600.742 540.409 C 600.494 540.161, 596.326 541.781, 591.480 544.009 C 583.946 547.473, 581.425 549.324, 574.085 556.780 C 569.363 561.576, 564.650 567.075, 563.610 569 L 561.720 572.500 566.110 568.312 C 570.021 564.580, 585.185 554, 586.623 554 C 586.931 554, 584.743 555.988, 581.761 558.417 C 576.933 562.350, 572.057 568, 573.491 568 C 573.787 568, 576.544 565.951, 579.619 563.447 C 587.889 556.710, 590.748 555.090, 614.133 543.884 C 636.647 533.094, 660.980 520.009, 664.726 516.676 C 665.951 515.587, 668.733 511.727, 670.909 508.098 C 673.085 504.469, 678.983 496.325, 684.016 490 C 689.049 483.675, 696.996 472.936, 701.677 466.136 C 710.029 454, 710.803 452.384, 720.066 427.747 C 721.812 423.105, 723.393 416.284, 724.007 410.747 C 724.570 405.661, 727.124 389.917, 729.681 375.759 C 734.717 347.873, 734.712 346.823, 729.541 343.435 C 722.486 338.812, 710.014 344.283, 704.888 354.250 C 703.827 356.313, 702.795 358, 702.594 358 C 702.393 358, 700.993 357.359, 699.482 356.575 C 694.232 353.851, 687.897 358.383, 683.615 367.923 C 682.202 371.072, 680.089 374.514, 678.920 375.572 C 675.662 378.521, 674.462 381.458, 669.928 397.581 C 664.493 416.909, 661.724 422.348, 653.712 429.426 C 649.606 433.053, 645.694 437.837, 642.652 442.950 C 638.905 449.250, 636.887 451.514, 632.744 454.063 C 629.883 455.823, 625.128 459.229, 622.179 461.632 C 619.230 464.034, 616.239 466, 615.532 466 C 612.694 466, 590.566 440.862, 559.376 402.205 L 549.251 389.656 554.782 380.578 C 568.253 358.470, 578.577 331.343, 580.985 311.724 C 582.094 302.694, 581.104 286.685, 578.839 277 C 576.844 268.469, 566.801 237.484, 563.768 230.500 C 556.674 214.166, 545.732 203.984, 530.975 199.986 C 525.684 198.552, 513.345 197.399, 507 197.746 M 329.589 201.856 C 329.298 202.327, 331.745 205.815, 335.026 209.606 C 338.308 213.398, 340.995 216.781, 340.997 217.124 C 341.003 218.221, 321.793 238, 320.722 238 C 320.155 238, 317.223 235.273, 314.207 231.939 C 310.515 227.860, 308.392 226.208, 307.712 226.888 C 307.033 227.567, 309.604 231.266, 315.574 238.199 C 328.783 253.538, 333.893 258.507, 335.158 257.242 C 335.915 256.485, 334.278 253.941, 329.540 248.509 L 322.855 240.844 333.079 230.468 C 341.098 222.330, 343.656 220.281, 344.940 220.968 C 345.840 221.449, 348.579 224.354, 351.028 227.422 C 355.375 232.870, 358 234.435, 358 231.579 C 358 230.797, 355.188 227.053, 351.750 223.259 C 348.313 219.465, 342.431 212.905, 338.680 208.680 C 331.986 201.143, 330.650 200.140, 329.589 201.856 M 369.073 203.635 C 366.992 206.280, 366.351 211.429, 367.815 213.735 C 368.246 214.414, 370.010 215.252, 371.733 215.597 C 377.937 216.837, 382.319 208.756, 378.443 203.223 C 376.236 200.071, 371.719 200.270, 369.073 203.635 M 682.554 216.114 C 669.645 229.679, 666.434 235.681, 669.546 240.430 C 672.212 244.499, 680 246.045, 680 242.504 C 680 241.799, 678.437 240.929, 676.527 240.571 C 671.442 239.617, 670.694 237.449, 673.764 232.563 C 676.461 228.272, 689.626 212.386, 692.378 210.101 C 694.366 208.452, 694.476 207, 692.614 207 C 691.851 207, 687.324 211.101, 682.554 216.114 M 499.521 210.082 C 491.159 212.522, 477.024 219.016, 475.178 221.267 C 473.996 222.708, 474.261 222.838, 477.678 222.496 C 479.780 222.286, 483.173 221.413, 485.218 220.557 C 492.485 217.514, 491.374 219.168, 483.500 223.114 C 479.100 225.319, 475.050 227.594, 474.500 228.169 C 473.950 228.744, 475.750 228.108, 478.500 226.756 C 483.613 224.242, 492.888 221.555, 493.689 222.355 C 493.934 222.600, 492.416 223.357, 490.317 224.038 C 483.327 226.303, 475.540 230.776, 472 234.560 C 468.528 238.271, 469.150 238.337, 474.045 234.778 C 476.472 233.013, 487.010 229.677, 487.768 230.434 C 487.966 230.633, 485.062 232.235, 481.314 233.996 C 474.408 237.240, 471 239.610, 471 241.168 C 471 241.639, 472.865 240.848, 475.144 239.409 C 480.388 236.099, 487.600 233.611, 496.626 231.997 C 506.653 230.206, 508.088 231.324, 498.500 233.458 C 486.919 236.034, 472.758 242.092, 474.423 243.757 C 474.714 244.047, 475.525 243.852, 476.226 243.323 C 479.348 240.964, 493.801 237.982, 501.799 238.045 C 507.435 238.090, 507.466 238.106, 504.500 239.464 C 501.823 240.690, 501.742 240.846, 503.750 240.919 C 506.171 241.006, 506.794 242.513, 504.750 243.338 C 504.043 243.623, 504.369 243.934, 505.500 244.053 C 506.690 244.178, 506.083 244.561, 504 245 C 501.506 245.525, 503.303 245.775, 510.250 245.868 C 517.376 245.965, 519.933 245.676, 519.750 244.797 C 519.609 244.119, 522.338 242.625, 526 241.375 L 532.500 239.155 528.228 238.446 C 521.262 237.290, 521.757 235.585, 528.843 236.326 C 532.229 236.680, 535 236.757, 535 236.498 C 535 235.537, 527.658 233, 524.878 233 C 523.295 233, 522 232.487, 522 231.861 C 522 231.080, 523.585 230.909, 527.032 231.317 C 530.121 231.683, 531.837 231.545, 531.475 230.960 C 531.108 230.365, 531.848 230.372, 533.443 230.978 C 534.973 231.560, 536 231.579, 536 231.026 C 536 230.197, 530.901 228.420, 522.500 226.323 L 519.500 225.574 523.342 225.221 C 525.455 225.027, 528.576 225.354, 530.279 225.947 C 534.497 227.418, 536.023 225.716, 532.535 223.431 C 531.062 222.466, 526.627 220.869, 522.679 219.881 L 515.500 218.086 523.190 218.419 C 529.362 218.687, 530.996 218.452, 531.464 217.233 C 531.785 216.397, 531.876 215.543, 531.667 215.334 C 531.458 215.125, 526.835 214.074, 521.393 213 L 511.500 211.045 520 211.573 C 524.675 211.862, 529.966 212.563, 531.759 213.130 C 533.551 213.697, 535.540 213.987, 536.179 213.774 C 536.818 213.561, 534.002 212.305, 529.921 210.984 C 519.819 207.714, 508.764 207.386, 499.521 210.082 M 711.727 241.007 C 706.615 243.746, 690.327 256.706, 689.594 258.617 C 688.284 262.030, 689.094 264.902, 692.077 267.411 C 695.464 270.261, 696.541 270.552, 697.566 268.893 C 697.942 268.285, 697.069 266.692, 695.625 265.353 C 694.181 264.014, 693 262.669, 693 262.364 C 693 260.459, 697.936 255.661, 705.155 250.548 C 714.609 243.851, 718 241.021, 718 239.826 C 718 238.452, 715.677 238.889, 711.727 241.007 M 499.757 252.034 C 487.789 254.049, 474.030 260.730, 469.638 266.660 L 467.775 269.175 476.841 287.337 C 485.134 303.951, 496.962 323.211, 504.500 332.376 L 507.500 336.024 516.688 322.196 C 531.283 300.231, 545.130 274.831, 546.597 267.332 C 547.177 264.369, 546.869 263.933, 541.819 260.581 C 534.789 255.913, 527.328 253.354, 516.953 252.053 C 507.646 250.886, 506.580 250.885, 499.757 252.034 M 555.449 266.750 C 554.581 268.813, 552.554 273.650, 550.945 277.500 C 548.440 283.490, 542.935 293.559, 528.529 318.500 L 525.641 323.500 528.498 321 L 531.355 318.500 529.427 321.667 C 528.367 323.409, 525.475 327.874, 523 331.588 C 520.525 335.303, 518.500 338.693, 518.500 339.121 C 518.500 339.550, 517.938 340.463, 517.250 341.150 C 516.563 341.837, 516.015 342.872, 516.033 343.450 C 516.052 344.027, 516.839 343.577, 517.783 342.450 C 526.495 332.044, 527.707 331.261, 522.414 339.456 C 520.271 342.773, 521.532 344.714, 524.271 342.315 C 526.522 340.344, 526.111 341.421, 522.773 346.243 C 518.825 351.945, 523.919 352.795, 528.803 347.250 L 532.106 343.500 529.725 348 C 526.805 353.519, 525.897 356.818, 527.094 357.558 C 527.592 357.866, 528 357.737, 528 357.272 C 528 356.806, 529.013 356.356, 530.250 356.272 C 531.506 356.186, 534.207 354.215, 536.366 351.809 C 540.506 347.194, 540.356 347.995, 535.825 354.688 C 534.146 357.167, 533.400 359.129, 533.995 359.497 C 534.548 359.838, 535.020 361.779, 535.045 363.809 L 535.090 367.500 538.667 363.259 C 540.634 360.927, 542.977 357.578, 543.872 355.819 C 544.767 354.059, 546.088 352.434, 546.807 352.207 C 548.229 351.759, 546.585 355.150, 541.674 362.799 C 538.557 367.653, 536.690 372.030, 537.775 371.940 C 538.174 371.906, 540.525 369.186, 543 365.893 C 551.254 354.913, 551.259 354.908, 549.239 359.500 C 546.725 365.216, 542.754 372, 541.923 372 C 541.533 372, 540.957 372.668, 540.644 373.485 C 540.190 374.669, 540.422 374.753, 541.792 373.898 C 544.403 372.267, 555.321 355.514, 559.647 346.500 C 564.288 336.829, 563.862 337.528, 564.646 338.313 C 565.002 338.668, 562.992 343.448, 560.179 348.935 C 557.266 354.621, 555.681 358.676, 556.495 358.363 C 557.281 358.062, 558.196 356.957, 558.529 355.908 C 558.862 354.858, 559.480 354, 559.902 354 C 560.323 354, 562.599 349.938, 564.958 344.974 C 569.113 336.229, 574.565 317, 572.889 317 C 572.435 317, 572.345 316.212, 572.691 315.250 C 573.036 314.288, 572.988 313.796, 572.584 314.158 C 572.180 314.520, 571.725 315.420, 571.573 316.158 C 571.421 316.896, 570.240 319.750, 568.948 322.500 C 567.440 325.713, 566.471 326.893, 566.237 325.802 C 566.037 324.869, 566.373 323.172, 566.983 322.032 C 567.593 320.892, 567.777 319.448, 567.392 318.825 C 566.962 318.130, 567.138 317.967, 567.845 318.405 C 568.480 318.797, 569 318.668, 569 318.118 C 569 316.386, 566.815 315.683, 565.904 317.122 C 563.868 320.336, 565.198 304.674, 567.644 296.625 C 568.051 295.287, 567.852 294.973, 566.953 295.529 C 566.130 296.038, 565.941 295.905, 566.409 295.147 C 566.804 294.508, 566.490 293.347, 565.711 292.568 C 564.490 291.347, 563.921 291.935, 561.571 296.852 C 560.072 299.987, 557.934 303.666, 556.819 305.026 C 555.235 306.959, 555.334 306.517, 557.270 303 C 558.632 300.525, 560.762 295.695, 562.002 292.266 C 563.964 286.841, 564.092 285.635, 562.989 282.972 L 561.721 279.912 558.840 284.956 C 554.621 292.344, 554.518 291.108, 558.672 282.931 C 561.886 276.605, 562.127 275.606, 560.963 273.431 C 560.247 272.094, 559.299 271, 558.856 271 C 558.412 271, 558.488 269.846, 559.025 268.435 C 560.724 263.965, 560.026 263.339, 557.983 267.500 C 556.193 271.143, 556.057 270.325, 557.567 265 C 558.526 261.620, 557.118 262.784, 555.449 266.750 M 456.816 272 C 456.519 272.825, 457.794 277.732, 459.650 282.904 C 465.067 297.997, 462.699 295.380, 455.212 278 C 454.161 275.559, 454.131 275.583, 453.963 279 L 453.790 282.500 452.472 278.500 C 450.793 273.407, 450.507 277.155, 452.093 283.455 C 453.739 289.991, 452.798 292.465, 450.554 287.500 C 449.559 285.300, 448.573 282.183, 448.362 280.572 C 447.837 276.567, 447 276.003, 447 279.654 C 447 283.117, 450.119 298.200, 453.045 308.883 C 455.045 316.186, 455.026 319.829, 453.016 314.543 C 451.938 311.707, 447.937 297.491, 446.249 290.500 C 444.705 284.104, 443.488 288.970, 444.607 297.067 C 445.532 303.758, 444.768 305.771, 443.497 299.989 C 442.353 294.780, 441.338 296.764, 442.083 302.750 C 443.362 313.012, 446.591 323.805, 452.405 337.250 C 453.297 339.313, 453.632 341, 453.150 341 C 452.137 341, 448.430 332.809, 444.550 322 C 443.069 317.875, 441.440 313.466, 440.929 312.203 C 440.418 310.940, 440 309.027, 440 307.953 C 440 306.879, 439.652 306, 439.226 306 C 438.800 306, 438.761 310.163, 439.138 315.250 C 439.945 326.113, 444.245 340.521, 450.254 352.492 C 456.841 365.614, 468.160 385.447, 469.514 386.237 C 470.209 386.643, 471.061 388.105, 471.407 389.487 C 471.754 390.869, 472.506 392, 473.078 392 C 473.650 392, 473.793 392.526, 473.395 393.170 C 472.897 393.975, 473.235 394.124, 474.477 393.647 C 475.956 393.080, 476.068 393.213, 475.098 394.382 C 474.136 395.542, 474.483 396.095, 476.947 397.324 C 478.666 398.181, 480.228 398.439, 480.550 397.919 C 480.862 397.414, 480.615 397, 480 397 C 479.385 397, 479.196 396.492, 479.579 395.872 C 480.056 395.101, 480.567 395.263, 481.193 396.381 C 481.698 397.282, 483.098 399.105, 484.305 400.433 C 489.613 406.269, 491.212 409.102, 490.796 411.935 C 490.494 413.996, 490.742 414.652, 491.688 414.289 C 492.410 414.013, 493 414.311, 493 414.952 C 493 415.593, 493.406 415.867, 493.902 415.561 C 495.138 414.797, 499.188 421.866, 498.351 423.327 C 497.982 423.972, 498.014 424.200, 498.423 423.833 C 499.477 422.888, 502.198 425.915, 504.250 430.315 C 506.210 434.519, 506.489 436.420, 505.011 435.507 C 504.439 435.153, 504.280 435.567, 504.635 436.491 C 504.972 437.368, 505.341 437.954, 505.456 437.793 C 505.571 437.632, 508.563 433.900, 512.104 429.500 C 515.646 425.100, 520.982 418.125, 523.962 414 C 526.942 409.875, 531.769 403.272, 534.688 399.327 C 539.759 392.474, 541.455 388.730, 539.681 388.303 C 539.230 388.195, 537.297 386.057, 535.385 383.553 C 533.473 381.049, 531.666 379, 531.370 379 C 531.074 379, 532.274 380.821, 534.037 383.046 C 535.799 385.271, 537.027 387.307, 536.764 387.569 C 536.212 388.122, 531.587 382.814, 522.751 371.485 C 519.313 367.077, 513.320 359.652, 509.434 354.985 C 500.965 344.814, 482.927 319.318, 476.457 308.372 C 473.898 304.042, 471.388 300.242, 470.879 299.927 C 470.370 299.611, 469.783 298.486, 469.574 297.427 C 468.768 293.331, 457.338 270.551, 456.816 272 M 311.979 304.548 C 308.017 313.791, 304.740 333, 307.125 333 C 307.594 333, 307.953 331.988, 307.924 330.750 C 307.864 328.279, 309.884 319.908, 312.364 312.349 C 314 307.364, 315.207 300, 314.389 300 C 314.136 300, 313.052 302.047, 311.979 304.548 M 704.816 303.508 C 704.262 304.421, 706.339 316.894, 709.477 331.500 L 710.766 337.500 710.883 331.708 C 711.048 323.518, 706.238 301.162, 704.816 303.508 M 518.479 345.024 C 516.752 346.931, 516.762 347, 518.738 347 C 519.864 347, 521.040 346.339, 521.349 345.532 C 522.249 343.187, 520.432 342.865, 518.479 345.024 M 715.244 351.398 C 713.175 353.268, 710.439 356.653, 709.164 358.923 L 706.845 363.048 710.763 362.422 C 713.607 361.967, 715.885 362.348, 719.077 363.811 C 721.494 364.919, 723.745 365.658, 724.077 365.452 C 724.410 365.247, 725.483 362.119, 726.462 358.502 C 728.168 352.201, 728.168 351.843, 726.466 349.963 C 723.745 346.956, 719.570 347.490, 715.244 351.398 M 693.083 363.583 C 690.757 365.541, 689.386 368.225, 687.421 374.665 C 685.996 379.339, 685.040 383.374, 685.298 383.631 C 685.556 383.889, 687.215 381.715, 688.985 378.800 C 690.755 375.885, 693.790 371.847, 695.730 369.827 C 698.559 366.880, 699.128 365.645, 698.609 363.577 C 697.798 360.348, 696.927 360.349, 693.083 363.583 M 677.599 393.500 C 676.054 402.026, 672.648 411.751, 669.220 417.427 C 667.251 420.688, 665.582 424.140, 665.511 425.099 C 665.440 426.058, 662.679 429.130, 659.374 431.925 C 656.069 434.720, 652.334 438.917, 651.075 441.253 C 649.188 444.752, 650.752 443.475, 659.959 434 C 666.105 427.675, 671.795 421.253, 672.603 419.729 C 674.281 416.565, 679.355 392.557, 678.734 390.715 C 678.509 390.047, 677.998 391.300, 677.599 393.500 M 484 406.031 C 484 406.599, 484.672 407.321, 485.494 407.636 C 486.316 407.952, 486.759 408.581, 486.478 409.036 C 486.197 409.490, 486.494 410.187, 487.138 410.585 C 487.843 411.021, 488.042 410.877, 487.638 410.224 C 487.269 409.627, 487.425 408.856, 487.984 408.510 C 488.543 408.165, 489.036 408.696, 489.079 409.691 C 489.129 410.836, 489.350 411.020, 489.682 410.192 C 489.970 409.473, 489.414 408.010, 488.448 406.942 C 486.565 404.862, 484 404.336, 484 406.031 M 548.146 411.324 C 547.214 412.447, 549.472 415.281, 559.744 425.883 C 566.760 433.123, 572.192 438.924, 571.815 438.774 C 570.258 438.152, 550 419.666, 550 418.868 C 550 418.391, 549.550 418, 549 418 C 547.006 418, 548.142 420.593, 552.067 425 C 554.271 427.475, 558.788 433.100, 562.104 437.500 L 568.134 445.500 562.817 439.823 C 559.893 436.701, 554.125 430.321, 550 425.645 C 545.875 420.969, 542.087 417.111, 541.583 417.071 C 541.079 417.032, 540.963 417.296, 541.325 417.658 C 541.687 418.020, 541.460 418.945, 540.822 419.714 C 539.897 420.829, 540.497 421.964, 543.779 425.306 C 546.043 427.613, 550.057 431.950, 552.698 434.944 C 559.726 442.913, 553.361 438.225, 545.109 429.355 C 541.601 425.585, 538.556 422.982, 538.342 423.571 C 537.804 425.050, 540.807 432, 541.983 432 C 543.149 432, 561 452.649, 561 453.997 C 561 454.524, 559.087 452.839, 556.750 450.253 C 548.247 440.846, 535.661 428, 534.946 428 C 532.905 428, 533.176 431.647, 535.459 434.907 C 541.099 442.957, 541.236 443.370, 536.898 439.250 C 528.804 431.561, 526.746 434.680, 533.520 444.370 C 538.923 452.100, 538.135 453.290, 532.414 446.040 C 528.361 440.904, 526 439.703, 526 442.777 C 526 444.648, 530.031 450.348, 538.750 460.807 C 541.638 464.270, 544 467.307, 544 467.555 C 544 468.211, 529.650 453.041, 528.689 451.369 C 527.606 449.486, 525.917 450.621, 526.714 452.696 C 527.132 453.787, 526.952 454.088, 526.170 453.605 C 525.526 453.207, 525 453.148, 525 453.473 C 525 454.225, 541.929 473.773, 548.362 480.449 C 555.250 487.599, 561.280 495.627, 564.416 501.826 C 567.549 508.018, 569.368 507.682, 570.419 500.718 C 571.574 493.062, 573.271 489.467, 575.576 489.797 C 577.544 490.078, 582.980 485.548, 588.588 478.955 C 591.795 475.184, 595.403 472.389, 597.911 471.734 C 600.148 471.148, 600.155 471.173, 598.342 473.293 C 597.269 474.548, 597.960 474.227, 600 472.524 L 603.500 469.602 600.250 466.106 C 597.234 462.861, 595.721 459.092, 598 460.500 C 598.550 460.840, 599 461.682, 599 462.371 C 599 463.808, 604.503 468.164, 605.305 467.361 C 605.598 467.069, 603.061 463.899, 599.668 460.317 C 596.276 456.736, 593.205 453.061, 592.844 452.152 C 592.109 450.304, 582.323 440.500, 581.212 440.500 C 580.820 440.500, 580.600 440.201, 580.722 439.835 C 580.843 439.470, 577.990 436.545, 574.381 433.335 C 570.772 430.126, 563.653 423.547, 558.562 418.715 C 550.979 411.519, 549.094 410.182, 548.146 411.324 M 442.468 430.707 C 423.616 453.673, 417.039 462, 417.755 462 C 418.175 462, 419.068 462.879, 419.739 463.954 C 420.640 465.396, 420.662 466.091, 419.825 466.608 C 419.134 467.035, 418.967 466.863, 419.397 466.166 C 419.862 465.415, 419.545 465.237, 418.474 465.648 C 416.995 466.216, 416.989 466.418, 418.413 467.841 C 419.836 469.265, 420.126 469.229, 421.564 467.455 C 422.436 466.380, 422.893 466.015, 422.580 466.645 C 421.529 468.763, 424.710 468.854, 428.119 466.803 L 431.500 464.770 429.143 467.313 L 426.786 469.857 429.393 472.668 C 430.827 474.214, 432 475.853, 432 476.310 C 432 476.767, 433.731 479.247, 435.846 481.821 C 439.174 485.869, 443.508 493.076, 448.734 503.250 C 449.557 504.853, 450.975 506, 452.132 506 C 453.224 506, 453.840 506.450, 453.500 507 C 453.160 507.550, 453.099 508, 453.364 508 C 453.860 508, 461.959 496.671, 463.371 494 C 463.808 493.175, 462.368 494.521, 460.172 496.990 C 457.976 499.460, 456.433 501.892, 456.744 502.395 C 457.055 502.898, 456.786 502.986, 456.147 502.591 C 455.497 502.189, 454.722 502.562, 454.386 503.437 C 454.056 504.296, 453.372 505, 452.865 505 C 452.017 505, 457.019 497.945, 465.546 487.112 C 467.446 484.699, 469 482.352, 469 481.897 C 469 481.442, 469.968 480.552, 471.151 479.919 L 473.301 478.769 471.082 481.884 C 469.862 483.598, 469.077 485, 469.338 485 C 469.599 485, 471.542 482.640, 473.656 479.756 C 480.929 469.834, 480.579 470.384, 478.905 471.500 C 478.080 472.050, 478.195 471.768, 479.160 470.874 C 480.125 469.980, 480.696 469.030, 480.429 468.763 C 480.162 468.496, 480.436 466.977, 481.037 465.389 L 482.130 462.500 478.604 465.908 C 476.665 467.783, 475.355 469.765, 475.693 470.313 C 476.032 470.861, 475.850 471.026, 475.290 470.679 C 474.729 470.333, 471.227 473.656, 467.508 478.064 C 463.788 482.472, 460.516 485.849, 460.236 485.569 C 459.698 485.032, 468.889 473.269, 475.134 466.500 C 482.973 458.004, 485.199 454.960, 484.637 453.497 C 484.321 452.674, 483.638 452, 483.119 452 C 482.600 452, 477.842 456.950, 472.545 463 C 467.247 469.050, 462.704 474, 462.447 474 C 461.600 474, 468.383 465.385, 475.635 457.251 C 481.500 450.673, 482.682 448.787, 482.274 446.655 C 481.312 441.618, 479.659 441.774, 475.234 447.319 C 472.940 450.194, 469.381 454.111, 467.327 456.023 L 463.591 459.500 467.463 454.500 C 469.592 451.750, 472.520 448.150, 473.970 446.500 C 479.291 440.441, 479.327 440.314, 475.747 440.212 C 473.716 440.154, 471.589 440.939, 470.063 442.310 L 467.624 444.500 469.812 441.615 C 472.057 438.655, 472.483 436.422, 471.360 433.497 C 470.848 432.161, 469.322 433.186, 463.668 438.665 L 456.614 445.500 461.482 439.500 C 464.159 436.200, 467.034 432.936, 467.871 432.246 C 469.809 430.650, 468.506 429.287, 464.346 428.558 C 461.418 428.045, 460.931 428.398, 457.571 433.459 C 455.580 436.458, 453.476 439.206, 452.894 439.565 C 451.854 440.208, 455.305 434.320, 459.338 428.569 C 460.468 426.958, 460.855 425.972, 460.197 426.378 C 459.416 426.861, 459 426.403, 459 425.059 C 459 422.658, 458.195 422.493, 455.473 424.334 C 452.318 426.467, 450.116 426.997, 449.378 425.802 C 448.987 425.169, 449.142 424.970, 449.739 425.339 C 450.375 425.731, 450.731 425.005, 450.644 423.494 C 450.565 422.123, 450.486 421.001, 450.468 421.001 C 450.451 421, 446.851 425.368, 442.468 430.707 M 330.004 429.293 C 330 431.146, 338.569 441, 340.185 441 C 340.686 441, 339.438 439.313, 337.412 437.250 C 335.385 435.188, 332.890 432.150, 331.867 430.500 C 330.526 428.336, 330.006 427.999, 330.004 429.293 M 378.828 457.018 C 380.291 460.328, 381.629 462.613, 381.801 462.097 C 382.114 461.159, 377.322 451, 376.567 451 C 376.348 451, 377.365 453.708, 378.828 457.018 M 525.659 458.676 C 526.671 460.423, 530.435 465.598, 534.022 470.176 C 537.609 474.754, 544.076 483.328, 548.393 489.228 C 552.710 495.129, 556.976 500.529, 557.871 501.228 C 559.348 502.381, 559.363 502.313, 558.038 500.500 C 557.234 499.400, 558.017 499.817, 559.778 501.427 C 561.539 503.037, 563.284 504.050, 563.656 503.677 C 564.029 503.305, 563.883 503, 563.333 503 C 562.783 503, 562.333 502.411, 562.333 501.691 C 562.333 498.249, 549.129 481.870, 535.978 469 C 532.888 465.975, 528.887 461.700, 527.088 459.500 C 524.352 456.154, 524.118 456.019, 525.659 458.676 M 387.025 460.565 C 388.460 464.341, 388.256 466.312, 386.500 465.638 C 383.370 464.437, 385.239 466.921, 391.960 472.895 C 396.764 477.164, 401.179 480.007, 406.210 482.071 C 414.207 485.351, 423.576 489.971, 428.967 493.294 L 432.434 495.431 428.967 490.568 C 424.316 484.045, 412.841 474.274, 406.327 471.292 C 403.418 469.960, 400.755 468.412, 400.408 467.852 C 399.535 466.439, 387.977 458, 386.915 458 C 386.439 458, 386.488 459.154, 387.025 460.565 M 628.500 463.089 C 624.650 465.847, 618.356 469.715, 614.513 471.684 C 607.299 475.380, 597.268 484.647, 594.329 490.331 L 592.801 493.286 596.150 491.268 C 597.993 490.159, 604.772 486.868, 611.217 483.955 C 617.661 481.042, 625.266 476.824, 628.118 474.580 C 632.690 470.982, 633.504 469.762, 635.010 464.250 C 635.949 460.813, 636.443 458.017, 636.109 458.037 C 635.774 458.057, 632.350 460.331, 628.500 463.089 M 639.523 461.500 C 634.321 470.039, 634.540 469.591, 636.260 468.182 C 637.878 466.856, 642.368 459, 641.507 459 C 641.254 459, 640.361 460.125, 639.523 461.500 M 665 473.608 C 662.270 475.305, 656.481 482.814, 657.283 483.617 C 657.558 483.891, 658.814 482.627, 660.076 480.808 C 661.338 478.988, 663.750 476.281, 665.435 474.791 C 668.883 471.743, 668.718 471.296, 665 473.608 M 383.038 515.500 C 393.242 526.935, 408.949 538.377, 438.968 556.246 C 444.408 559.484, 454.002 568.232, 457.341 573 C 458.304 574.375, 458.058 573.524, 456.796 571.109 C 451.537 561.051, 432.560 543.063, 422 538.128 C 419.895 537.144, 419.797 537.160, 421.381 538.230 C 431.263 544.902, 446.594 558, 444.522 558 C 444.068 558, 438.702 554.707, 432.598 550.683 C 426.494 546.658, 418.125 541.391, 414 538.979 C 403.074 532.590, 397.119 527.951, 384.038 515.640 L 378.577 510.500 383.038 515.500 M 455.560 519.549 C 451.501 525.744, 448 532.202, 448 533.494 C 448 534.268, 448.688 535.286, 449.529 535.756 C 450.370 536.227, 456.261 541.762, 462.619 548.056 C 470.312 555.672, 475.822 562.162, 479.090 567.458 C 484.171 575.694, 485.024 575.719, 482.569 567.562 C 480.911 562.053, 478.154 557.773, 468.683 546 L 461.845 537.500 469.418 545.500 C 479.603 556.260, 486.415 569.263, 486.466 578.041 C 486.485 581.317, 486.879 583.998, 487.343 583.999 C 488.584 584.001, 487.598 574.463, 485.587 567 C 483.534 559.384, 477.688 547.001, 474.064 542.593 C 472.656 540.880, 472.344 540.151, 473.366 540.960 C 476.590 543.511, 482.922 553.675, 485.984 561.213 C 487.612 565.221, 488.957 567.944, 488.972 567.265 C 489.034 564.510, 482.647 547.108, 479.516 541.500 C 475.882 534.992, 467.239 524.942, 461.084 520.067 L 457.224 517.009 455.560 519.549 M 604.960 527.386 C 589.516 531.994, 570.293 543.325, 565.494 550.650 C 564.400 552.319, 566.044 551.363, 570.329 547.839 C 577.690 541.785, 590.263 534.944, 594 534.959 C 595.703 534.966, 596.084 534.705, 595.195 534.141 C 594.331 533.594, 596.950 532.218, 602.934 530.078 C 607.909 528.298, 612.236 526.428, 612.549 525.921 C 612.862 525.415, 612.979 525.031, 612.809 525.068 C 612.639 525.105, 609.107 526.148, 604.960 527.386 M 415 529.542 C 415 529.840, 418.488 531.716, 422.750 533.710 C 429.403 536.824, 439.856 542.758, 449 548.612 C 450.375 549.492, 449.700 548.554, 447.500 546.527 C 440.603 540.173, 415 526.792, 415 529.542 M 557.055 536.250 C 549.295 543.275, 540.965 553.248, 541.034 555.431 C 541.052 556.019, 542.497 554.700, 544.245 552.500 C 545.992 550.300, 551.687 544.112, 556.898 538.750 C 562.110 533.388, 566.079 529, 565.719 529 C 565.358 529, 561.459 532.263, 557.055 536.250 M 586.725 540.934 C 579.955 544.619, 575.613 548, 577.651 548 C 578.245 548, 579.803 547.162, 581.115 546.137 C 582.427 545.113, 585.330 543.346, 587.567 542.211 C 589.804 541.075, 592.221 539.438, 592.939 538.573 C 594.560 536.621, 594.853 536.509, 586.725 540.934 M 563.250 544.934 C 559.633 547.554, 557.224 550, 558.260 550 C 558.469 550, 561.051 548.200, 564 546 C 566.949 543.800, 568.897 542, 568.331 542 C 567.764 542, 565.477 543.320, 563.250 544.934 M 461.500 570.442 C 463.700 574.998, 465.662 578.302, 465.860 577.784 C 466.277 576.691, 460.227 564.436, 458.599 563.076 C 457.994 562.572, 459.300 565.886, 461.500 570.442 M 548.051 565.595 C 540.942 573.691, 533.102 588.806, 534.240 592.221 C 534.458 592.874, 535.731 590.295, 537.068 586.490 C 538.484 582.463, 542.096 575.901, 545.712 570.786 C 549.128 565.954, 551.762 562, 551.565 562 C 551.368 562, 549.787 563.618, 548.051 565.595" stroke="none" fill="#f9fbfb" fill-rule="evenodd"/></svg>