<svg xmlns="http://www.w3.org/2000/svg" width="605" height="596" viewBox="0 0 605 596" version="1.1"><path d="M 293 121.119 C 285.533 122.207, 279.088 124.403, 273.840 127.648 C 270.570 129.670, 270.011 130.655, 268.590 136.903 C 266.862 144.500, 266.502 155.666, 267.914 157.894 C 268.646 159.051, 269.377 158.930, 272.191 157.191 C 274.057 156.037, 279.768 153.893, 284.882 152.427 C 293.241 150.029, 295.355 149.808, 305.839 150.238 C 315.429 150.631, 318.832 151.217, 325 153.536 C 329.125 155.088, 333.493 156.990, 334.706 157.765 C 338.624 160.265, 339.326 158.567, 338.698 148.106 C 338.381 142.823, 337.516 136.475, 336.777 134 C 335.624 130.141, 334.711 129.111, 330.369 126.769 C 320.872 121.645, 305.421 119.309, 293 121.119 M 252.812 143.750 C 234.013 163.222, 230.621 179.397, 239.546 207.005 C 245.488 225.385, 252.635 239.259, 264.787 256 C 274.064 268.781, 295.655 289.678, 297.587 287.746 C 297.808 287.526, 296.191 284.936, 293.994 281.992 C 291.797 279.048, 290 276.135, 290 275.519 C 290 274.275, 292.008 272, 293.105 272 C 293.493 272, 296.146 275.150, 299 279 C 304.311 286.164, 305.838 287.105, 307.975 284.530 C 308.978 283.322, 308.124 281.640, 303.179 275.077 C 298.909 269.410, 297.318 266.499, 297.698 265.047 C 298.644 261.429, 300.748 262.816, 307.574 271.558 C 312.037 277.274, 314.739 279.930, 315.710 279.558 C 316.509 279.251, 317.352 279, 317.582 279 C 319.358 279, 317 274.506, 311.585 267.572 C 308.056 263.053, 305.078 258.713, 304.966 257.928 C 303.989 251.061, 307.725 253.005, 315.813 263.571 C 323.001 272.963, 325.193 274.423, 325.812 270.229 C 326.303 266.900, 324.221 263.861, 311.542 249.401 C 298.112 234.085, 297.760 233.939, 291.358 241.025 C 288.368 244.335, 287.129 245, 283.956 245 C 275.992 245, 273.559 236.025, 278.774 225.891 C 280.300 222.926, 282.150 219.580, 282.886 218.456 C 284.080 216.631, 283.776 215.723, 280.034 209.956 C 266.780 189.526, 257.518 158.965, 259.516 142.250 C 259.861 139.363, 259.960 137, 259.736 137 C 259.512 137, 256.396 140.037, 252.812 143.750 M 355.252 147 C 355.246 163.568, 352.440 174.671, 343.430 193.779 C 337.956 205.388, 325.798 225, 324.075 225 C 323.541 225, 318.850 222.320, 313.650 219.044 C 308.450 215.768, 303.076 212.806, 301.708 212.463 C 298.207 211.584, 293.076 214.553, 288.117 220.327 C 283.183 226.073, 281.375 229.374, 280.131 234.914 C 279.333 238.466, 279.459 239.176, 281.045 240.024 C 283.467 241.321, 287.729 239.395, 289.370 236.263 C 290.049 234.968, 293.013 232.792, 295.958 231.428 L 301.312 228.948 305.906 234.189 C 308.433 237.071, 313.478 242.596, 317.117 246.465 C 321.214 250.821, 324.923 256.020, 326.855 260.117 C 331.882 270.777, 331.372 270.927, 343.248 255.283 C 366.639 224.472, 377.553 204.081, 380.064 186.500 C 381.957 173.240, 375.966 158.575, 363.014 144.770 L 355.255 136.500 355.252 147 M 326.235 280.728 C 320.621 286.313, 316.915 288.960, 309.926 292.377 L 300.882 296.798 316.191 309.106 C 324.611 315.875, 335.550 324.520, 340.500 328.315 L 349.500 335.216 349.750 326.358 C 349.887 321.486, 350.224 316.522, 350.499 315.328 C 351.095 312.740, 353.816 311.786, 367.250 309.455 C 372.613 308.525, 377 307.628, 377 307.462 C 377 307.296, 372.837 304.121, 367.750 300.408 C 362.663 296.694, 352.875 289.120, 346 283.578 L 333.500 273.500 326.235 280.728 M 264.947 285.113 C 256.536 292.120, 247.147 299.179, 226.091 314.329 C 222.111 317.193, 220.216 319.113, 221.091 319.397 C 221.866 319.648, 226.775 320.584, 232 321.479 C 237.225 322.373, 242.903 323.546, 244.617 324.086 L 247.734 325.067 248.617 336.939 L 249.500 348.811 263.590 337.656 C 278.868 325.559, 296.305 310.601, 299.500 306.848 L 301.500 304.500 287.947 290.872 L 274.393 277.244 264.947 285.113 M 98 401 L 98 421 103 421 L 108 421 108 413.500 L 108 406 116 406 L 124 406 124 413.500 L 124 421 129 421 L 134 421 134 401 L 134 381 129 381 L 124 381 124 389.500 L 124 398 116 398 L 108 398 108 389.500 L 108 381 103 381 L 98 381 98 401 M 150.500 382.349 C 143.315 385.638, 139 392.637, 139 401 C 139 407.301, 140.784 411.574, 145.131 415.689 C 149.510 419.833, 152.800 421, 160.105 421 C 180.369 421, 188.565 397.217, 172.661 384.561 C 169.237 381.837, 167.995 381.478, 161.161 381.242 C 156.258 381.072, 152.420 381.471, 150.500 382.349 M 186 401 L 186 421 191 421 L 196 421 196 415.500 L 196 410 201.532 410 C 211.841 410, 217.960 405.470, 218.750 397.254 C 219.434 390.133, 217.131 385.415, 211.788 382.990 C 208.405 381.455, 205.231 381.039, 196.750 381.022 L 186 381 186 401 M 224 401 L 224 421 239.500 421 L 255 421 255 417 L 255 413 244.500 413 L 234 413 234 409 L 234 405 243.500 405 L 253 405 253 401 L 253 397 243.500 397 L 234 397 234 393 L 234 389 244.500 389 L 255 389 255 385 L 255 381 239.500 381 L 224 381 224 401 M 274 401 L 274 421 279 421 L 284 421 284 414 L 284 407 293 407 L 302 407 302 403 L 302 399 293 399 L 284 399 284 394 L 284 389 293.500 389 L 303 389 303 385 L 303 381 288.500 381 L 274 381 274 401 M 315.871 382.953 C 301.862 390.559, 301.675 410.871, 315.542 418.725 C 321.155 421.905, 331.018 421.881, 337.093 418.672 C 350.097 411.804, 351.063 392.365, 338.803 384.251 C 333.225 380.560, 321.502 379.896, 315.871 382.953 M 352 401 L 352 421 357.500 421 L 363 421 363 415.500 L 363 410 366.511 410 C 369.773 410, 370.213 410.390, 372.719 415.500 L 375.417 421 381.208 421 C 384.394 421, 387 420.784, 387 420.519 C 387 420.255, 385.425 417.577, 383.500 414.567 C 379.890 408.925, 379.258 407, 381.015 407 C 383.126 407, 385.993 400.497, 385.996 395.700 C 386.005 384.548, 380.594 381.056, 363.250 381.022 L 352 381 352 401 M 417.662 381.750 C 417.411 382.163, 413.738 390.825, 409.500 401 C 405.262 411.175, 401.575 419.861, 401.306 420.303 C 401.037 420.744, 403.431 420.969, 406.625 420.803 C 412.227 420.511, 412.466 420.385, 413.361 417.250 L 414.289 414 422.696 414 L 431.102 414 432.564 417.500 C 433.984 420.898, 434.186 421, 439.527 421 L 445.027 421 443.677 417.750 C 442.935 415.962, 439.250 406.962, 435.489 397.750 L 428.651 381 423.384 381 C 420.488 381, 417.913 381.337, 417.662 381.750 M 448 401 L 448 421 461.500 421 L 475 421 475 416.500 L 475 412 466.500 412 L 458 412 458 396.500 L 458 381 453 381 L 448 381 448 401 M 480 401 L 480 421 493.500 421 L 507 421 507 416.500 L 507 412 498.500 412 L 490 412 490 396.500 L 490 381 485 381 L 480 381 480 401 M 196 395.500 L 196 402 200.277 402 C 206.068 402, 209 399.815, 209 395.500 C 209 391.185, 206.068 389, 200.277 389 L 196 389 196 395.500 M 363 395.500 L 363 402 367.845 402 C 373.511 402, 376 399.963, 376 395.326 C 376 391.067, 373.278 389, 367.671 389 L 363 389 363 395.500 M 153.707 392.016 C 145.476 398.490, 149.873 412, 160.212 412 C 163.235 412, 164.835 411.319, 167.077 409.077 C 169.551 406.602, 170 405.363, 170 401 C 170 396.637, 169.551 395.398, 167.077 392.923 C 163.463 389.309, 157.650 388.915, 153.707 392.016 M 320.367 391.772 C 314.326 396.665, 314.607 405.716, 320.954 410.718 C 321.804 411.388, 324.351 411.951, 326.614 411.968 C 329.726 411.992, 331.354 411.374, 333.300 409.427 C 340.410 402.317, 336.156 389.971, 326.614 390.022 C 324.235 390.035, 321.600 390.773, 320.367 391.772 M 421.231 397 C 417.253 406.220, 417.210 406, 423 406 C 428.734 406, 428.585 406.603, 425.091 397.500 L 423.172 392.500 421.231 397 M 103.459 452.250 C 103.196 452.938, 102.375 456.988, 101.635 461.250 C 100.385 468.446, 100.412 469, 102.016 469 C 103.259 469, 103.924 467.877, 104.384 465 C 104.941 461.516, 105.361 461, 107.640 461 C 110.140 461, 110.227 461.180, 109.604 465.078 C 109.039 468.611, 109.185 469.111, 110.698 468.820 C 112.042 468.561, 112.749 466.660, 113.763 460.582 C 114.635 455.355, 114.745 452.345, 114.088 451.688 C 113.141 450.741, 112.170 452.295, 110.613 457.250 C 110.310 458.212, 109.149 459, 108.031 459 C 106.328 459, 106 458.354, 106 455 C 106 451.202, 104.486 449.564, 103.459 452.250 M 124.315 452.007 C 121.627 453.090, 120.258 455.537, 119.425 460.742 C 118.529 466.346, 120.164 469, 124.512 469 C 128.703 469, 130.709 466.402, 131.613 459.805 C 132.138 455.980, 131.895 454.895, 130.120 453.120 C 127.787 450.787, 127.487 450.729, 124.315 452.007 M 139.259 452.250 C 138.717 452.938, 137.975 455.525, 137.610 458 C 137.245 460.475, 136.683 463.962, 136.362 465.750 C 135.566 470.175, 138.766 470.418, 139.650 466 C 140.140 463.549, 140.748 463, 142.970 463 C 148.516 463, 151.195 455.651, 146.777 452.557 C 144.099 450.681, 140.609 450.538, 139.259 452.250 M 156.385 451.739 C 155.368 452.433, 153 463.341, 153 467.332 C 153 468.642, 153.965 469, 157.500 469 C 159.975 469, 162 468.550, 162 468 C 162 467.450, 160.902 467, 159.559 467 C 156.620 467, 155.910 466.061, 156.665 463.174 C 157.083 461.576, 157.998 461, 160.117 461 C 161.702 461, 163 460.550, 163 460 C 163 459.450, 161.875 459, 160.500 459 C 158.500 459, 158 458.500, 158 456.500 C 158 454.298, 158.428 454, 161.583 454 C 164.002 454, 165.033 453.594, 164.756 452.750 C 164.290 451.332, 158.080 450.582, 156.385 451.739 M 179.385 451.769 C 178.369 452.435, 176 463.328, 176 467.332 C 176 468.249, 176.660 469, 177.466 469 C 178.468 469, 179.140 467.427, 179.592 464.019 C 180.374 458.127, 181.329 458.280, 182.908 464.550 C 183.775 467.992, 184.484 469.053, 185.754 468.809 C 187.832 468.409, 190.753 453.353, 189.077 451.677 C 187.911 450.511, 186 454.752, 186 458.506 C 186 462.529, 184.216 462.235, 183.516 458.096 C 182.737 453.484, 180.948 450.744, 179.385 451.769 M 197.401 451.739 C 196.797 452.158, 195.638 456.212, 194.825 460.750 L 193.347 469 198.173 469 C 200.828 469, 203 468.550, 203 468 C 203 467.450, 201.902 467, 200.559 467 C 197.620 467, 196.910 466.061, 197.665 463.174 C 198.043 461.729, 199.012 461, 200.558 461 C 201.836 461, 203.160 460.550, 203.500 460 C 203.851 459.433, 203.010 459, 201.559 459 C 199.496 459, 199 458.515, 199 456.500 C 199 454.298, 199.428 454, 202.583 454 C 205.002 454, 206.033 453.594, 205.756 452.750 C 205.291 451.333, 199.074 450.581, 197.401 451.739 M 210.505 451.992 C 210.167 452.538, 210.366 456.396, 210.946 460.565 C 211.526 464.734, 212 468.337, 212 468.572 C 212 468.808, 212.838 469, 213.861 469 C 215.229 469, 216.546 467.039, 218.824 461.611 C 222.648 452.502, 222.870 451.500, 221.062 451.500 C 220.263 451.500, 218.695 453.810, 217.536 456.692 C 214.782 463.544, 214.003 464.142, 213.986 459.417 C 213.963 452.654, 212.294 449.097, 210.505 451.992 M 228.163 452.750 C 227.664 453.712, 226.941 456.750, 226.556 459.500 C 226.171 462.250, 225.615 465.512, 225.320 466.750 C 224.817 468.860, 225.102 469, 229.892 469 C 232.701 469, 235 468.550, 235 468 C 235 467.450, 233.620 467, 231.934 467 C 229.178 467, 228.899 466.721, 229.184 464.250 C 229.432 462.090, 230.090 461.432, 232.250 461.184 C 235.564 460.802, 235.889 459.265, 232.750 458.820 C 231.273 458.610, 230.500 457.813, 230.500 456.500 C 230.500 454.975, 231.271 454.426, 233.750 454.187 C 235.763 453.993, 237 453.327, 237 452.437 C 237 450.225, 229.331 450.496, 228.163 452.750 M 243.259 452.250 C 242.717 452.938, 241.975 455.525, 241.610 458 C 241.245 460.475, 240.683 463.962, 240.362 465.750 C 239.916 468.232, 240.132 469, 241.277 469 C 242.200 469, 243.030 467.653, 243.434 465.500 C 243.795 463.575, 244.472 462, 244.938 462 C 245.982 462, 247 464.510, 247 467.082 C 247 468.333, 247.695 469, 249 469 C 250.100 469, 251 468.885, 251 468.743 C 251 468.602, 250.606 467.113, 250.124 465.434 C 249.499 463.254, 249.642 461.842, 250.624 460.499 C 252.961 457.304, 252.373 453.092, 249.435 451.975 C 246.018 450.676, 244.445 450.746, 243.259 452.250 M 268.417 451.740 C 267.519 452.371, 265 464.312, 265 467.943 C 265 469.906, 272.559 469.144, 274.514 466.985 C 276.872 464.379, 277.797 454.906, 275.851 453.291 C 273.950 451.714, 269.714 450.830, 268.417 451.740 M 284.523 452.083 C 284.225 452.862, 283.375 456.988, 282.635 461.250 C 281.396 468.380, 281.423 469, 282.971 469 C 284.308 469, 284.910 467.330, 285.898 460.871 C 286.759 455.251, 286.822 452.422, 286.104 451.704 C 285.386 450.986, 284.898 451.103, 284.523 452.083 M 293.481 452.192 C 293.206 452.911, 292.375 456.988, 291.635 461.250 L 290.288 469 295.144 469 C 297.815 469, 300 468.550, 300 468 C 300 467.450, 298.902 467, 297.559 467 C 294.640 467, 293.645 465.694, 294.503 462.991 C 294.906 461.722, 296.017 461, 297.567 461 C 298.905 461, 300 460.550, 300 460 C 300 459.450, 299.175 459, 298.167 459 C 295.708 459, 295.119 458.262, 295.725 455.942 C 296.105 454.490, 297.109 454, 299.700 454 C 304.711 454, 303.385 451.577, 298.163 451.192 C 295.405 450.989, 293.811 451.329, 293.481 452.192 M 311.315 452.062 C 306.494 453.883, 306.289 460.005, 310.999 461.500 C 313.168 462.188, 313.711 465.443, 311.848 466.594 C 311.215 466.985, 310.153 466.562, 309.488 465.653 C 308.046 463.681, 306 463.474, 306 465.300 C 306 467.380, 308.190 469, 311 469 C 314.355 469, 316 467.297, 316 463.823 C 316 461.964, 315.173 460.504, 313.500 459.408 C 312.125 458.507, 311 457.173, 311 456.444 C 311 454.212, 313.025 453.713, 314.964 455.467 C 316.172 456.561, 317.027 456.766, 317.460 456.065 C 318.962 453.635, 314.626 450.811, 311.315 452.062 M 335.315 452.075 C 332.745 453.030, 331.507 455.150, 330.609 460.127 C 329.674 465.313, 331.308 469, 334.541 469 C 337.917 469, 341 467.312, 341 465.465 C 341 463.475, 339.002 463.615, 337.468 465.712 C 336.403 467.169, 335.974 467.223, 334.589 466.074 C 332.004 463.928, 334.339 454, 337.428 454 C 338.175 454, 339.045 454.675, 339.362 455.500 C 339.956 457.049, 343 457.627, 343 456.191 C 343 454.924, 340.654 452.332, 339 451.771 C 338.175 451.492, 336.517 451.628, 335.315 452.075 M 349.996 459.008 C 347.798 463.379, 346 467.416, 346 467.978 C 346 469.836, 348.853 469.039, 349.500 467 C 349.906 465.722, 351.013 465, 352.567 465 C 354.333 465, 355 465.548, 355 467 C 355 468.248, 355.667 469, 356.773 469 C 358.403 469, 358.471 468.321, 357.617 460.547 C 356.370 449.197, 355.062 448.933, 349.996 459.008 M 367.195 452.685 C 366.414 454.185, 364 466.008, 364 468.332 C 364 468.699, 364.655 469, 365.455 469 C 366.349 469, 367.169 467.556, 367.583 465.250 C 368.755 458.724, 369.647 458.358, 370.967 463.862 C 371.877 467.657, 372.664 469, 373.977 469 C 375.428 469, 375.982 467.542, 376.987 461.082 C 378.163 453.523, 377.846 450.359, 376.025 451.485 C 375.564 451.769, 374.878 454.252, 374.500 457.002 C 373.710 462.741, 372.473 462.762, 371.509 457.052 C 370.686 452.183, 368.571 450.042, 367.195 452.685 M 387.315 452.075 C 384.641 453.069, 383.443 455.227, 382.541 460.675 C 381.672 465.923, 383.172 469, 386.601 469 C 389.923 469, 393 467.300, 393 465.465 C 393 463.475, 391.002 463.615, 389.468 465.712 C 388.403 467.169, 387.974 467.223, 386.589 466.074 C 384.004 463.928, 386.339 454, 389.428 454 C 390.175 454, 391.045 454.675, 391.362 455.500 C 391.956 457.049, 395 457.627, 395 456.191 C 395 454.924, 392.654 452.332, 391 451.771 C 390.175 451.492, 388.517 451.628, 387.315 452.075 M 401.112 453.250 C 400.650 454.488, 399.961 457.750, 399.579 460.500 C 399.198 463.250, 398.656 466.288, 398.376 467.250 C 397.937 468.754, 398.579 469, 402.933 469 C 405.720 469, 408 468.550, 408 468 C 408 467.450, 406.620 467, 404.934 467 C 402.178 467, 401.899 466.721, 402.184 464.250 C 402.432 462.090, 403.090 461.432, 405.250 461.184 C 408.362 460.826, 409.038 459, 406.059 459 C 403.703 459, 402.785 457.725, 403.604 455.590 C 403.963 454.654, 405.380 454, 407.048 454 C 410.287 454, 411.762 452.506, 409.412 451.605 C 405.785 450.213, 401.961 450.971, 401.112 453.250 M 416.163 452.750 C 415.664 453.712, 414.941 456.750, 414.556 459.500 C 414.171 462.250, 413.615 465.512, 413.320 466.750 C 412.455 470.374, 415.792 469.582, 416.736 465.939 C 417.772 461.942, 419.346 461.725, 419.998 465.488 C 420.313 467.309, 421.220 468.611, 422.319 468.823 C 423.876 469.123, 424.032 468.689, 423.462 465.647 C 422.996 463.166, 423.274 461.447, 424.400 459.839 C 426.601 456.697, 426.404 454.396, 423.777 452.557 C 420.829 450.492, 417.287 450.582, 416.163 452.750 M 440.587 452.128 C 440.044 453.808, 438 466.215, 438 467.832 C 438 468.524, 439.599 469, 441.927 469 C 447.241 469, 450 465.577, 450 458.988 C 450 453.737, 448.925 452.335, 444.170 451.384 C 441.959 450.942, 440.900 451.162, 440.587 452.128 M 460.168 452.133 C 456.171 453.612, 453.670 462.646, 456.035 467.066 C 457.396 469.608, 462.388 469.612, 464.928 467.072 C 467.283 464.717, 468.606 457.001, 467.128 454.239 C 465.831 451.816, 463.188 451.016, 460.168 452.133 M 474.563 452.192 C 474.036 453.836, 472 466.261, 472 467.832 C 472 468.567, 473.854 469, 477 469 C 479.750 469, 482 468.550, 482 468 C 482 467.450, 480.650 467, 479 467 C 476.333 467, 476 466.667, 476 464 C 476 461.333, 476.333 461, 479 461 C 480.650 461, 482 460.550, 482 460 C 482 459.450, 480.844 459, 479.430 459 C 477.338 459, 476.920 458.582, 477.180 456.750 C 477.427 455.015, 478.258 454.427, 480.811 454.182 C 485.484 453.733, 484.292 451.570, 479.163 451.192 C 476.377 450.987, 474.842 451.320, 474.563 452.192 M 491.834 452.391 C 488.107 454.242, 488.242 457.930, 492.155 461.142 C 495.380 463.791, 495.435 463.954, 493.693 465.695 C 491.979 467.408, 491.836 467.411, 490.894 465.750 C 489.738 463.713, 487 463.397, 487 465.300 C 487 468.898, 493.493 470.364, 496.429 467.429 C 498.829 465.028, 498.314 462.292, 495 459.842 C 493.350 458.622, 492 457.060, 492 456.371 C 492 454.172, 494.063 453.747, 496.042 455.538 C 497.765 457.097, 498.020 457.112, 498.568 455.684 C 499.832 452.389, 495.805 450.419, 491.834 452.391 M 124.167 455.750 C 122.227 459.506, 121.903 464.675, 123.523 466.019 C 125.575 467.722, 126.898 466.364, 128.047 461.372 C 129.080 456.885, 128.462 454, 126.468 454 C 125.699 454, 124.664 454.788, 124.167 455.750 M 141.667 454.667 C 140.337 455.996, 140.968 461, 142.465 461 C 144.282 461, 146.345 457.341, 145.608 455.422 C 145.040 453.940, 142.819 453.515, 141.667 454.667 M 245.362 455.500 C 244.487 457.779, 245.715 460.046, 247.462 459.376 C 249.497 458.595, 249.503 454, 247.469 454 C 246.626 454, 245.678 454.675, 245.362 455.500 M 270.504 455.167 C 269.083 458.978, 268.332 466.087, 269.288 466.678 C 271.291 467.916, 274.116 462.894, 273.799 458.656 C 273.504 454.715, 271.474 452.565, 270.504 455.167 M 418.667 454.667 C 417.688 455.645, 417.854 458.792, 418.919 459.450 C 420.295 460.300, 423 457.163, 422.351 455.471 C 421.763 453.939, 419.818 453.515, 418.667 454.667 M 443.616 454.812 C 442.371 456.826, 441.723 467, 442.839 467 C 444.936 467, 447.137 462.240, 446.815 458.404 C 446.513 454.807, 444.805 452.889, 443.616 454.812 M 460.259 455.250 C 458.348 457.673, 457.888 464.662, 459.549 466.041 C 461.575 467.722, 462.902 466.345, 464.047 461.372 C 465.443 455.308, 463.144 451.592, 460.259 455.250 M 352.476 460.075 C 351.727 462.436, 352.363 463.512, 353.933 462.541 C 355.245 461.731, 355.355 458, 354.067 458 C 353.554 458, 352.838 458.934, 352.476 460.075" stroke="none" fill="#2b718a" fill-rule="evenodd"/><path d="M 0 298.002 L 0 596.003 302.750 595.752 L 605.500 595.500 605.752 297.750 L 606.003 0 303.002 0 L 0 0 0 298.002 M 0.493 298.500 C 0.493 462.400, 0.609 529.599, 0.750 447.831 C 0.891 366.063, 0.891 231.963, 0.750 149.831 C 0.609 67.699, 0.493 134.600, 0.493 298.500 M 293 121.119 C 285.533 122.207, 279.088 124.403, 273.840 127.648 C 270.570 129.670, 270.011 130.655, 268.590 136.903 C 266.862 144.500, 266.502 155.666, 267.914 157.894 C 268.646 159.051, 269.377 158.930, 272.191 157.191 C 274.057 156.037, 279.768 153.893, 284.882 152.427 C 293.241 150.029, 295.355 149.808, 305.839 150.238 C 315.429 150.631, 318.832 151.217, 325 153.536 C 329.125 155.088, 333.493 156.990, 334.706 157.765 C 338.624 160.265, 339.326 158.567, 338.698 148.106 C 338.381 142.823, 337.516 136.475, 336.777 134 C 335.624 130.141, 334.711 129.111, 330.369 126.769 C 320.872 121.645, 305.421 119.309, 293 121.119 M 252.812 143.750 C 234.013 163.222, 230.621 179.397, 239.546 207.005 C 245.488 225.385, 252.635 239.259, 264.787 256 C 274.064 268.781, 295.655 289.678, 297.587 287.746 C 297.808 287.526, 296.191 284.936, 293.994 281.992 C 291.797 279.048, 290 276.135, 290 275.519 C 290 274.275, 292.008 272, 293.105 272 C 293.493 272, 296.146 275.150, 299 279 C 304.311 286.164, 305.838 287.105, 307.975 284.530 C 308.978 283.322, 308.124 281.640, 303.179 275.077 C 298.909 269.410, 297.318 266.499, 297.698 265.047 C 298.644 261.429, 300.748 262.816, 307.574 271.558 C 312.037 277.274, 314.739 279.930, 315.710 279.558 C 316.509 279.251, 317.352 279, 317.582 279 C 319.358 279, 317 274.506, 311.585 267.572 C 308.056 263.053, 305.078 258.713, 304.966 257.928 C 303.989 251.061, 307.725 253.005, 315.813 263.571 C 323.001 272.963, 325.193 274.423, 325.812 270.229 C 326.303 266.900, 324.221 263.861, 311.542 249.401 C 298.112 234.085, 297.760 233.939, 291.358 241.025 C 288.368 244.335, 287.129 245, 283.956 245 C 275.992 245, 273.559 236.025, 278.774 225.891 C 280.300 222.926, 282.150 219.580, 282.886 218.456 C 284.080 216.631, 283.776 215.723, 280.034 209.956 C 266.780 189.526, 257.518 158.965, 259.516 142.250 C 259.861 139.363, 259.960 137, 259.736 137 C 259.512 137, 256.396 140.037, 252.812 143.750 M 355.252 147 C 355.246 163.568, 352.440 174.671, 343.430 193.779 C 337.956 205.388, 325.798 225, 324.075 225 C 323.541 225, 318.850 222.320, 313.650 219.044 C 308.450 215.768, 303.076 212.806, 301.708 212.463 C 298.207 211.584, 293.076 214.553, 288.117 220.327 C 283.183 226.073, 281.375 229.374, 280.131 234.914 C 279.333 238.466, 279.459 239.176, 281.045 240.024 C 283.467 241.321, 287.729 239.395, 289.370 236.263 C 290.049 234.968, 293.013 232.792, 295.958 231.428 L 301.312 228.948 305.906 234.189 C 308.433 237.071, 313.478 242.596, 317.117 246.465 C 321.214 250.821, 324.923 256.020, 326.855 260.117 C 331.882 270.777, 331.372 270.927, 343.248 255.283 C 366.639 224.472, 377.553 204.081, 380.064 186.500 C 381.957 173.240, 375.966 158.575, 363.014 144.770 L 355.255 136.500 355.252 147 M 326.235 280.728 C 320.621 286.313, 316.915 288.960, 309.926 292.377 L 300.882 296.798 316.191 309.106 C 324.611 315.875, 335.550 324.520, 340.500 328.315 L 349.500 335.216 349.750 326.358 C 349.887 321.486, 350.224 316.522, 350.499 315.328 C 351.095 312.740, 353.816 311.786, 367.250 309.455 C 372.613 308.525, 377 307.628, 377 307.462 C 377 307.296, 372.837 304.121, 367.750 300.408 C 362.663 296.694, 352.875 289.120, 346 283.578 L 333.500 273.500 326.235 280.728 M 264.947 285.113 C 256.536 292.120, 247.147 299.179, 226.091 314.329 C 222.111 317.193, 220.216 319.113, 221.091 319.397 C 221.866 319.648, 226.775 320.584, 232 321.479 C 237.225 322.373, 242.903 323.546, 244.617 324.086 L 247.734 325.067 248.617 336.939 L 249.500 348.811 263.590 337.656 C 278.868 325.559, 296.305 310.601, 299.500 306.848 L 301.500 304.500 287.947 290.872 L 274.393 277.244 264.947 285.113 M 98 401 L 98 421 103 421 L 108 421 108 413.500 L 108 406 116 406 L 124 406 124 413.500 L 124 421 129 421 L 134 421 134 401 L 134 381 129 381 L 124 381 124 389.500 L 124 398 116 398 L 108 398 108 389.500 L 108 381 103 381 L 98 381 98 401 M 150.500 382.349 C 143.315 385.638, 139 392.637, 139 401 C 139 407.301, 140.784 411.574, 145.131 415.689 C 149.510 419.833, 152.800 421, 160.105 421 C 180.369 421, 188.565 397.217, 172.661 384.561 C 169.237 381.837, 167.995 381.478, 161.161 381.242 C 156.258 381.072, 152.420 381.471, 150.500 382.349 M 186 401 L 186 421 191 421 L 196 421 196 415.500 L 196 410 201.532 410 C 211.841 410, 217.960 405.470, 218.750 397.254 C 219.434 390.133, 217.131 385.415, 211.788 382.990 C 208.405 381.455, 205.231 381.039, 196.750 381.022 L 186 381 186 401 M 224 401 L 224 421 239.500 421 L 255 421 255 417 L 255 413 244.500 413 L 234 413 234 409 L 234 405 243.500 405 L 253 405 253 401 L 253 397 243.500 397 L 234 397 234 393 L 234 389 244.500 389 L 255 389 255 385 L 255 381 239.500 381 L 224 381 224 401 M 274 401 L 274 421 279 421 L 284 421 284 414 L 284 407 293 407 L 302 407 302 403 L 302 399 293 399 L 284 399 284 394 L 284 389 293.500 389 L 303 389 303 385 L 303 381 288.500 381 L 274 381 274 401 M 315.871 382.953 C 301.862 390.559, 301.675 410.871, 315.542 418.725 C 321.155 421.905, 331.018 421.881, 337.093 418.672 C 350.097 411.804, 351.063 392.365, 338.803 384.251 C 333.225 380.560, 321.502 379.896, 315.871 382.953 M 352 401 L 352 421 357.500 421 L 363 421 363 415.500 L 363 410 366.511 410 C 369.773 410, 370.213 410.390, 372.719 415.500 L 375.417 421 381.208 421 C 384.394 421, 387 420.784, 387 420.519 C 387 420.255, 385.425 417.577, 383.500 414.567 C 379.890 408.925, 379.258 407, 381.015 407 C 383.126 407, 385.993 400.497, 385.996 395.700 C 386.005 384.548, 380.594 381.056, 363.250 381.022 L 352 381 352 401 M 417.662 381.750 C 417.411 382.163, 413.738 390.825, 409.500 401 C 405.262 411.175, 401.575 419.861, 401.306 420.303 C 401.037 420.744, 403.431 420.969, 406.625 420.803 C 412.227 420.511, 412.466 420.385, 413.361 417.250 L 414.289 414 422.696 414 L 431.102 414 432.564 417.500 C 433.984 420.898, 434.186 421, 439.527 421 L 445.027 421 443.677 417.750 C 442.935 415.962, 439.250 406.962, 435.489 397.750 L 428.651 381 423.384 381 C 420.488 381, 417.913 381.337, 417.662 381.750 M 448 401 L 448 421 461.500 421 L 475 421 475 416.500 L 475 412 466.500 412 L 458 412 458 396.500 L 458 381 453 381 L 448 381 448 401 M 480 401 L 480 421 493.500 421 L 507 421 507 416.500 L 507 412 498.500 412 L 490 412 490 396.500 L 490 381 485 381 L 480 381 480 401 M 196 395.500 L 196 402 200.277 402 C 206.068 402, 209 399.815, 209 395.500 C 209 391.185, 206.068 389, 200.277 389 L 196 389 196 395.500 M 363 395.500 L 363 402 367.845 402 C 373.511 402, 376 399.963, 376 395.326 C 376 391.067, 373.278 389, 367.671 389 L 363 389 363 395.500 M 153.707 392.016 C 145.476 398.490, 149.873 412, 160.212 412 C 163.235 412, 164.835 411.319, 167.077 409.077 C 169.551 406.602, 170 405.363, 170 401 C 170 396.637, 169.551 395.398, 167.077 392.923 C 163.463 389.309, 157.650 388.915, 153.707 392.016 M 320.367 391.772 C 314.326 396.665, 314.607 405.716, 320.954 410.718 C 321.804 411.388, 324.351 411.951, 326.614 411.968 C 329.726 411.992, 331.354 411.374, 333.300 409.427 C 340.410 402.317, 336.156 389.971, 326.614 390.022 C 324.235 390.035, 321.600 390.773, 320.367 391.772 M 421.231 397 C 417.253 406.220, 417.210 406, 423 406 C 428.734 406, 428.585 406.603, 425.091 397.500 L 423.172 392.500 421.231 397 M 103.459 452.250 C 103.196 452.938, 102.375 456.988, 101.635 461.250 C 100.385 468.446, 100.412 469, 102.016 469 C 103.259 469, 103.924 467.877, 104.384 465 C 104.941 461.516, 105.361 461, 107.640 461 C 110.140 461, 110.227 461.180, 109.604 465.078 C 109.039 468.611, 109.185 469.111, 110.698 468.820 C 112.042 468.561, 112.749 466.660, 113.763 460.582 C 114.635 455.355, 114.745 452.345, 114.088 451.688 C 113.141 450.741, 112.170 452.295, 110.613 457.250 C 110.310 458.212, 109.149 459, 108.031 459 C 106.328 459, 106 458.354, 106 455 C 106 451.202, 104.486 449.564, 103.459 452.250 M 124.315 452.007 C 121.627 453.090, 120.258 455.537, 119.425 460.742 C 118.529 466.346, 120.164 469, 124.512 469 C 128.703 469, 130.709 466.402, 131.613 459.805 C 132.138 455.980, 131.895 454.895, 130.120 453.120 C 127.787 450.787, 127.487 450.729, 124.315 452.007 M 139.259 452.250 C 138.717 452.938, 137.975 455.525, 137.610 458 C 137.245 460.475, 136.683 463.962, 136.362 465.750 C 135.566 470.175, 138.766 470.418, 139.650 466 C 140.140 463.549, 140.748 463, 142.970 463 C 148.516 463, 151.195 455.651, 146.777 452.557 C 144.099 450.681, 140.609 450.538, 139.259 452.250 M 156.385 451.739 C 155.368 452.433, 153 463.341, 153 467.332 C 153 468.642, 153.965 469, 157.500 469 C 159.975 469, 162 468.550, 162 468 C 162 467.450, 160.902 467, 159.559 467 C 156.620 467, 155.910 466.061, 156.665 463.174 C 157.083 461.576, 157.998 461, 160.117 461 C 161.702 461, 163 460.550, 163 460 C 163 459.450, 161.875 459, 160.500 459 C 158.500 459, 158 458.500, 158 456.500 C 158 454.298, 158.428 454, 161.583 454 C 164.002 454, 165.033 453.594, 164.756 452.750 C 164.290 451.332, 158.080 450.582, 156.385 451.739 M 179.385 451.769 C 178.369 452.435, 176 463.328, 176 467.332 C 176 468.249, 176.660 469, 177.466 469 C 178.468 469, 179.140 467.427, 179.592 464.019 C 180.374 458.127, 181.329 458.280, 182.908 464.550 C 183.775 467.992, 184.484 469.053, 185.754 468.809 C 187.832 468.409, 190.753 453.353, 189.077 451.677 C 187.911 450.511, 186 454.752, 186 458.506 C 186 462.529, 184.216 462.235, 183.516 458.096 C 182.737 453.484, 180.948 450.744, 179.385 451.769 M 197.401 451.739 C 196.797 452.158, 195.638 456.212, 194.825 460.750 L 193.347 469 198.173 469 C 200.828 469, 203 468.550, 203 468 C 203 467.450, 201.902 467, 200.559 467 C 197.620 467, 196.910 466.061, 197.665 463.174 C 198.043 461.729, 199.012 461, 200.558 461 C 201.836 461, 203.160 460.550, 203.500 460 C 203.851 459.433, 203.010 459, 201.559 459 C 199.496 459, 199 458.515, 199 456.500 C 199 454.298, 199.428 454, 202.583 454 C 205.002 454, 206.033 453.594, 205.756 452.750 C 205.291 451.333, 199.074 450.581, 197.401 451.739 M 210.505 451.992 C 210.167 452.538, 210.366 456.396, 210.946 460.565 C 211.526 464.734, 212 468.337, 212 468.572 C 212 468.808, 212.838 469, 213.861 469 C 215.229 469, 216.546 467.039, 218.824 461.611 C 222.648 452.502, 222.870 451.500, 221.062 451.500 C 220.263 451.500, 218.695 453.810, 217.536 456.692 C 214.782 463.544, 214.003 464.142, 213.986 459.417 C 213.963 452.654, 212.294 449.097, 210.505 451.992 M 228.163 452.750 C 227.664 453.712, 226.941 456.750, 226.556 459.500 C 226.171 462.250, 225.615 465.512, 225.320 466.750 C 224.817 468.860, 225.102 469, 229.892 469 C 232.701 469, 235 468.550, 235 468 C 235 467.450, 233.620 467, 231.934 467 C 229.178 467, 228.899 466.721, 229.184 464.250 C 229.432 462.090, 230.090 461.432, 232.250 461.184 C 235.564 460.802, 235.889 459.265, 232.750 458.820 C 231.273 458.610, 230.500 457.813, 230.500 456.500 C 230.500 454.975, 231.271 454.426, 233.750 454.187 C 235.763 453.993, 237 453.327, 237 452.437 C 237 450.225, 229.331 450.496, 228.163 452.750 M 243.259 452.250 C 242.717 452.938, 241.975 455.525, 241.610 458 C 241.245 460.475, 240.683 463.962, 240.362 465.750 C 239.916 468.232, 240.132 469, 241.277 469 C 242.200 469, 243.030 467.653, 243.434 465.500 C 243.795 463.575, 244.472 462, 244.938 462 C 245.982 462, 247 464.510, 247 467.082 C 247 468.333, 247.695 469, 249 469 C 250.100 469, 251 468.885, 251 468.743 C 251 468.602, 250.606 467.113, 250.124 465.434 C 249.499 463.254, 249.642 461.842, 250.624 460.499 C 252.961 457.304, 252.373 453.092, 249.435 451.975 C 246.018 450.676, 244.445 450.746, 243.259 452.250 M 268.417 451.740 C 267.519 452.371, 265 464.312, 265 467.943 C 265 469.906, 272.559 469.144, 274.514 466.985 C 276.872 464.379, 277.797 454.906, 275.851 453.291 C 273.950 451.714, 269.714 450.830, 268.417 451.740 M 284.523 452.083 C 284.225 452.862, 283.375 456.988, 282.635 461.250 C 281.396 468.380, 281.423 469, 282.971 469 C 284.308 469, 284.910 467.330, 285.898 460.871 C 286.759 455.251, 286.822 452.422, 286.104 451.704 C 285.386 450.986, 284.898 451.103, 284.523 452.083 M 293.481 452.192 C 293.206 452.911, 292.375 456.988, 291.635 461.250 L 290.288 469 295.144 469 C 297.815 469, 300 468.550, 300 468 C 300 467.450, 298.902 467, 297.559 467 C 294.640 467, 293.645 465.694, 294.503 462.991 C 294.906 461.722, 296.017 461, 297.567 461 C 298.905 461, 300 460.550, 300 460 C 300 459.450, 299.175 459, 298.167 459 C 295.708 459, 295.119 458.262, 295.725 455.942 C 296.105 454.490, 297.109 454, 299.700 454 C 304.711 454, 303.385 451.577, 298.163 451.192 C 295.405 450.989, 293.811 451.329, 293.481 452.192 M 311.315 452.062 C 306.494 453.883, 306.289 460.005, 310.999 461.500 C 313.168 462.188, 313.711 465.443, 311.848 466.594 C 311.215 466.985, 310.153 466.562, 309.488 465.653 C 308.046 463.681, 306 463.474, 306 465.300 C 306 467.380, 308.190 469, 311 469 C 314.355 469, 316 467.297, 316 463.823 C 316 461.964, 315.173 460.504, 313.500 459.408 C 312.125 458.507, 311 457.173, 311 456.444 C 311 454.212, 313.025 453.713, 314.964 455.467 C 316.172 456.561, 317.027 456.766, 317.460 456.065 C 318.962 453.635, 314.626 450.811, 311.315 452.062 M 335.315 452.075 C 332.745 453.030, 331.507 455.150, 330.609 460.127 C 329.674 465.313, 331.308 469, 334.541 469 C 337.917 469, 341 467.312, 341 465.465 C 341 463.475, 339.002 463.615, 337.468 465.712 C 336.403 467.169, 335.974 467.223, 334.589 466.074 C 332.004 463.928, 334.339 454, 337.428 454 C 338.175 454, 339.045 454.675, 339.362 455.500 C 339.956 457.049, 343 457.627, 343 456.191 C 343 454.924, 340.654 452.332, 339 451.771 C 338.175 451.492, 336.517 451.628, 335.315 452.075 M 349.996 459.008 C 347.798 463.379, 346 467.416, 346 467.978 C 346 469.836, 348.853 469.039, 349.500 467 C 349.906 465.722, 351.013 465, 352.567 465 C 354.333 465, 355 465.548, 355 467 C 355 468.248, 355.667 469, 356.773 469 C 358.403 469, 358.471 468.321, 357.617 460.547 C 356.370 449.197, 355.062 448.933, 349.996 459.008 M 367.195 452.685 C 366.414 454.185, 364 466.008, 364 468.332 C 364 468.699, 364.655 469, 365.455 469 C 366.349 469, 367.169 467.556, 367.583 465.250 C 368.755 458.724, 369.647 458.358, 370.967 463.862 C 371.877 467.657, 372.664 469, 373.977 469 C 375.428 469, 375.982 467.542, 376.987 461.082 C 378.163 453.523, 377.846 450.359, 376.025 451.485 C 375.564 451.769, 374.878 454.252, 374.500 457.002 C 373.710 462.741, 372.473 462.762, 371.509 457.052 C 370.686 452.183, 368.571 450.042, 367.195 452.685 M 387.315 452.075 C 384.641 453.069, 383.443 455.227, 382.541 460.675 C 381.672 465.923, 383.172 469, 386.601 469 C 389.923 469, 393 467.300, 393 465.465 C 393 463.475, 391.002 463.615, 389.468 465.712 C 388.403 467.169, 387.974 467.223, 386.589 466.074 C 384.004 463.928, 386.339 454, 389.428 454 C 390.175 454, 391.045 454.675, 391.362 455.500 C 391.956 457.049, 395 457.627, 395 456.191 C 395 454.924, 392.654 452.332, 391 451.771 C 390.175 451.492, 388.517 451.628, 387.315 452.075 M 401.112 453.250 C 400.650 454.488, 399.961 457.750, 399.579 460.500 C 399.198 463.250, 398.656 466.288, 398.376 467.250 C 397.937 468.754, 398.579 469, 402.933 469 C 405.720 469, 408 468.550, 408 468 C 408 467.450, 406.620 467, 404.934 467 C 402.178 467, 401.899 466.721, 402.184 464.250 C 402.432 462.090, 403.090 461.432, 405.250 461.184 C 408.362 460.826, 409.038 459, 406.059 459 C 403.703 459, 402.785 457.725, 403.604 455.590 C 403.963 454.654, 405.380 454, 407.048 454 C 410.287 454, 411.762 452.506, 409.412 451.605 C 405.785 450.213, 401.961 450.971, 401.112 453.250 M 416.163 452.750 C 415.664 453.712, 414.941 456.750, 414.556 459.500 C 414.171 462.250, 413.615 465.512, 413.320 466.750 C 412.455 470.374, 415.792 469.582, 416.736 465.939 C 417.772 461.942, 419.346 461.725, 419.998 465.488 C 420.313 467.309, 421.220 468.611, 422.319 468.823 C 423.876 469.123, 424.032 468.689, 423.462 465.647 C 422.996 463.166, 423.274 461.447, 424.400 459.839 C 426.601 456.697, 426.404 454.396, 423.777 452.557 C 420.829 450.492, 417.287 450.582, 416.163 452.750 M 440.587 452.128 C 440.044 453.808, 438 466.215, 438 467.832 C 438 468.524, 439.599 469, 441.927 469 C 447.241 469, 450 465.577, 450 458.988 C 450 453.737, 448.925 452.335, 444.170 451.384 C 441.959 450.942, 440.900 451.162, 440.587 452.128 M 460.168 452.133 C 456.171 453.612, 453.670 462.646, 456.035 467.066 C 457.396 469.608, 462.388 469.612, 464.928 467.072 C 467.283 464.717, 468.606 457.001, 467.128 454.239 C 465.831 451.816, 463.188 451.016, 460.168 452.133 M 474.563 452.192 C 474.036 453.836, 472 466.261, 472 467.832 C 472 468.567, 473.854 469, 477 469 C 479.750 469, 482 468.550, 482 468 C 482 467.450, 480.650 467, 479 467 C 476.333 467, 476 466.667, 476 464 C 476 461.333, 476.333 461, 479 461 C 480.650 461, 482 460.550, 482 460 C 482 459.450, 480.844 459, 479.430 459 C 477.338 459, 476.920 458.582, 477.180 456.750 C 477.427 455.015, 478.258 454.427, 480.811 454.182 C 485.484 453.733, 484.292 451.570, 479.163 451.192 C 476.377 450.987, 474.842 451.320, 474.563 452.192 M 491.834 452.391 C 488.107 454.242, 488.242 457.930, 492.155 461.142 C 495.380 463.791, 495.435 463.954, 493.693 465.695 C 491.979 467.408, 491.836 467.411, 490.894 465.750 C 489.738 463.713, 487 463.397, 487 465.300 C 487 468.898, 493.493 470.364, 496.429 467.429 C 498.829 465.028, 498.314 462.292, 495 459.842 C 493.350 458.622, 492 457.060, 492 456.371 C 492 454.172, 494.063 453.747, 496.042 455.538 C 497.765 457.097, 498.020 457.112, 498.568 455.684 C 499.832 452.389, 495.805 450.419, 491.834 452.391 M 124.167 455.750 C 122.227 459.506, 121.903 464.675, 123.523 466.019 C 125.575 467.722, 126.898 466.364, 128.047 461.372 C 129.080 456.885, 128.462 454, 126.468 454 C 125.699 454, 124.664 454.788, 124.167 455.750 M 141.667 454.667 C 140.337 455.996, 140.968 461, 142.465 461 C 144.282 461, 146.345 457.341, 145.608 455.422 C 145.040 453.940, 142.819 453.515, 141.667 454.667 M 245.362 455.500 C 244.487 457.779, 245.715 460.046, 247.462 459.376 C 249.497 458.595, 249.503 454, 247.469 454 C 246.626 454, 245.678 454.675, 245.362 455.500 M 270.504 455.167 C 269.083 458.978, 268.332 466.087, 269.288 466.678 C 271.291 467.916, 274.116 462.894, 273.799 458.656 C 273.504 454.715, 271.474 452.565, 270.504 455.167 M 418.667 454.667 C 417.688 455.645, 417.854 458.792, 418.919 459.450 C 420.295 460.300, 423 457.163, 422.351 455.471 C 421.763 453.939, 419.818 453.515, 418.667 454.667 M 443.616 454.812 C 442.371 456.826, 441.723 467, 442.839 467 C 444.936 467, 447.137 462.240, 446.815 458.404 C 446.513 454.807, 444.805 452.889, 443.616 454.812 M 460.259 455.250 C 458.348 457.673, 457.888 464.662, 459.549 466.041 C 461.575 467.722, 462.902 466.345, 464.047 461.372 C 465.443 455.308, 463.144 451.592, 460.259 455.250 M 352.476 460.075 C 351.727 462.436, 352.363 463.512, 353.933 462.541 C 355.245 461.731, 355.355 458, 354.067 458 C 353.554 458, 352.838 458.934, 352.476 460.075" stroke="none" fill="#fbfbfb" fill-rule="evenodd"/></svg>